<?xml version="1.0" encoding="utf-8"?>
<!-- Generator: Adobe Illustrator 27.5.0, SVG Export Plug-In . SVG Version: 6.00 Build 0)  -->
<svg version="1.1" xmlns="http://www.w3.org/2000/svg" xmlns:xlink="http://www.w3.org/1999/xlink" x="0px" y="0px"
	 viewBox="0 0 3710 3710" style="enable-background:new 0 0 3710 3710;" xml:space="preserve">
<g id="Background">
	<g>
		<g>
			<rect style="fill:#FFFFFF;" width="3710" height="3710"/>
		</g>
	</g>
</g>
<g id="Illustration">
	<g>
		<path style="fill:#F4F7FA;" d="M2446.547,512.166c-212.418-45.19-433.266-66.849-649.201-53.043
			c-191.387,12.237-408.329,45.636-562.342,165.271c-73.396,57.013-160.925,159.459-184.933,249.836
			c-0.003,0.011-126.372,475.716-379.106,577.653c-252.737,101.939-428.25,1841.694,1488.343,1671.796
			c0,0,1125.702-44.52,1193.482-1326.88c16.374-309.778,7.225-650.332-188.927-909.358
			c-150.313-198.493-360.914-286.75-602.919-348.505C2523.141,529.29,2484.982,520.343,2446.547,512.166z"/>
		<g>
			<defs>
				<rect id="SVGID_1_" x="2356.431" y="1468.969" width="994.756" height="1034.117"/>
			</defs>
			<clipPath id="SVGID_00000144299224135338492260000015216530070690093699_">
				<use xlink:href="#SVGID_1_"  style="overflow:visible;"/>
			</clipPath>
			<g style="clip-path:url(#SVGID_00000144299224135338492260000015216530070690093699_);">
				<g>
					<defs>
						<path id="SVGID_00000152952150659657004580000013932053003461687439_" d="M2136.717,2772.19l146.807,150.728
							c0,0,104.955-46.935,123.546-137.02c37.93-183.801,196.261-137.752,265.462-128.386
							c104.361,14.125,202.486-18.941,146.523-134.655c-55.963-115.714,164.916-159.789,330.169-112.687
							c161.712,46.093,336.961-214.772-3.885-346.671c-203.552-78.77-332.593,90.303-418.055,160.191
							c-85.463,69.888-206.114-40.944-263.303,92.907c-48.85,114.333-45.405,237.809-150.308,243.189
							S2140.391,2621.755,2136.717,2772.19z"/>
					</defs>
					<clipPath id="SVGID_00000070097526915345988370000016138794563772652175_">
						<use xlink:href="#SVGID_00000152952150659657004580000013932053003461687439_"  style="overflow:visible;"/>
					</clipPath>
					
						<linearGradient id="SVGID_00000059998138429602763030000013064274341740835259_" gradientUnits="userSpaceOnUse" x1="8443.3389" y1="97.5842" x2="8024.4678" y2="1288.0608" gradientTransform="matrix(0.6977 0.7164 -0.7164 0.6977 -2547.2019 -3932.364)">
						<stop  offset="0" style="stop-color:#FFC444"/>
						<stop  offset="0.9964" style="stop-color:#F36F56"/>
					</linearGradient>
					
						<path style="clip-path:url(#SVGID_00000070097526915345988370000016138794563772652175_);fill:url(#SVGID_00000059998138429602763030000013064274341740835259_);" d="
						M2136.717,2772.19l146.807,150.728c0,0,104.955-46.935,123.546-137.02c37.93-183.801,196.261-137.752,265.462-128.386
						c104.361,14.125,189.934-18.206,159.318-127.607c-34.64-123.781,152.121-166.837,317.374-119.735
						c161.712,46.093,336.961-214.772-3.885-346.671c-203.552-78.77-332.593,90.303-418.055,160.191
						c-85.463,69.888-206.114-40.944-263.303,92.907c-48.85,114.333-45.405,237.809-150.308,243.189
						S2140.391,2621.755,2136.717,2772.19z"/>
					<g style="opacity:0.5;clip-path:url(#SVGID_00000070097526915345988370000016138794563772652175_);">
						<path style="fill:#BEB8F2;" d="M2186.266,2851.051l3.622,2.571c1.593-2.243,161.837-226.281,387.661-400.477
							c208.044-160.483,515.941-310.271,801.302-112.502l2.531-3.651c-127.029-88.038-268.999-115.713-421.968-82.26
							c-122.195,26.724-251.61,92.314-384.65,194.95C2348.436,2624.29,2187.863,2848.803,2186.266,2851.051z"/>
						<path style="fill:#BEB8F2;" d="M2896.097,2271.472l3.471,2.774c92.352-115.446,280.638-220.811,282.529-221.863l-2.156-3.884
							C3178.041,2049.557,2988.991,2155.349,2896.097,2271.472z"/>
						<path style="fill:#BEB8F2;" d="M2998.63,2251.976c171.067,42.115,236.52,173.383,237.16,174.703l3.996-1.938
							c-0.648-1.342-66.929-134.446-240.093-177.079L2998.63,2251.976z"/>
						<path style="fill:#BEB8F2;" d="M2436.118,2575.072c184.675-110.541,420.202,57.665,422.36,59.495l3.086-3.188
							c-1.947-1.997-241.413-171.641-427.727-60.117L2436.118,2575.072z"/>
						<path style="fill:#BEB8F2;" d="M2498.731,2512.174l3.685,2.485c76.812-113.854,41.323-282.896,40.955-284.592l-4.34,0.941
							C2539.393,2232.686,2574.474,2399.911,2498.731,2512.174z"/>
						<path style="fill:#BEB8F2;" d="M2215.88,2818.923c62.861-52.284,190.295-13.95,191.575-13.558l1.305-4.244
							c-5.317-1.636-131.005-39.44-195.72,14.388L2215.88,2818.923z"/>
						<path style="fill:#BEB8F2;" d="M2253.114,2765.359l3.591,2.615c38.059-52.258,21.706-170.793,16.331-209.745
							c-0.759-5.505-1.415-10.257-1.365-11.126l-4.43-0.317c-0.088,1.226,0.339,4.386,1.395,12.05
							C2273.95,2597.348,2290.119,2714.549,2253.114,2765.359z"/>
					</g>
				</g>
				<g>
					
						<linearGradient id="SVGID_00000101801070925267658360000010837872921683565744_" gradientUnits="userSpaceOnUse" x1="-2088.3411" y1="2713.636" x2="-1539.9922" y2="4154.4692" gradientTransform="matrix(-0.9758 0.2188 0.2188 0.9758 45.9194 -748.5501)">
						<stop  offset="0" style="stop-color:#FFC444"/>
						<stop  offset="0.9964" style="stop-color:#F36F56"/>
					</linearGradient>
					<path style="fill:url(#SVGID_00000101801070925267658360000010837872921683565744_);" d="M2706.591,2556.636
						c40.596,43.035,32.172,99.787,19.643,139.899c-5.466,1.561-8.213,3.853-13.36,6.642
						c-46.461,25.17-71.645,26.009-121.357,43.588c-10.7,3.784-45.485,5.339-59.738,5.061l-26.565-0.941
						c0,0-80.6-109.75-23.578-162.224c57.022-52.474-6.305-166.42-32.414-230.919c-16.033-39.607-10.677-62.857-14.232-78.356
						c-37.63-164.068-100.215-197.637-79.677-258.506c22.671-67.195,105.43-45.519,133.955-117.313
						c32.209-81.07-51.692-163.137-4.067-233.044c8.165-11.985,16.88-24.078,33.174-34.506
						c40.218-25.74,83.438-10.551,104.25-55.901c41.832-91.155,138.333-146.631,223.997-88.795
						c84.545,57.081,55.533,225.856-93.597,396.668c-92.206,133.567-84.933,163.806-52.866,233.433
						c22.459,48.77,115.661,166.119,57.491,239.638C2699.479,2434.58,2660.18,2507.439,2706.591,2556.636z"/>
					<g>
						<defs>
							<path id="SVGID_00000027594471335762679810000012933130732838154672_" d="M2706.509,2746.568l-195.854,7.604
								c0,0-86.043-113.036-29.02-165.511c57.023-52.475-6.304-166.42-32.413-230.919
								c-70.841-175.003,144.059-217.359,72.522-449.273c-19.027-61.682-77.651-173.092-36.544-237.945
								c46.832-73.887,110.659-32.085,137.424-90.407c41.832-91.154,138.333-146.631,223.997-88.795
								c84.546,57.081,55.533,225.856-93.596,396.668c-92.207,133.568-84.933,163.806-52.868,233.433
								c22.46,48.77,115.661,166.119,57.492,239.638s-97.467,146.378-51.058,195.575
								C2777.207,2631.496,2706.509,2746.568,2706.509,2746.568z"/>
						</defs>
						<clipPath id="SVGID_00000073715543191275492760000004702487135209498037_">
							<use xlink:href="#SVGID_00000027594471335762679810000012933130732838154672_"  style="overflow:visible;"/>
						</clipPath>
						<g style="opacity:0.5;clip-path:url(#SVGID_00000073715543191275492760000004702487135209498037_);">
							<path style="fill:#FCFDFE;" d="M2618.531,2741.264l-3.837,0.608c-3.558-21.156-6.865-42.537-9.827-63.548
								c-21.922-155.573-27.36-307.639-16.159-451.98c9.492-122.303,31.032-240.783,64.025-352.147
								c26.532-89.558,60.582-175.023,101.202-254.019c28.557-55.532,60.04-107.32,93.579-153.92
								c5.843-8.122,12.304-16.132,18.552-23.879c8.325-10.321,16.934-20.993,24.146-32.014l3.311,1.835
								c-7.311,11.172-15.977,21.917-24.358,32.308c-6.218,7.708-12.646,15.678-18.43,23.718
								c-33.434,46.454-64.824,98.087-93.299,153.463c-40.521,78.8-74.487,164.061-100.959,253.413
								c-32.924,111.135-54.422,229.378-63.895,351.446c-11.182,144.096-5.752,295.921,16.137,451.253
								C2611.676,2698.785,2614.977,2720.135,2618.531,2741.264z"/>
							<path style="fill:#FCFDFE;" d="M2622.355,2012.026l-3.835-0.518c26.612-153.011-109.802-383.831-111.184-386.144l3.405-1.784
								C2512.129,1625.905,2649.18,1857.791,2622.355,2012.026z"/>
							<path style="fill:#FCFDFE;" d="M2588.27,2445.526l-3.88-0.101c4.999-105.759,176.813-234.337,178.547-235.624l2.398,2.801
								C2763.614,2213.879,2593.19,2341.42,2588.27,2445.526z"/>
							<path style="fill:#FCFDFE;" d="M2591.024,2505.68l-3.85,0.535c-9.945-68.294-62.935-155.933-149.209-246.768
								c-4.338-4.568-4.338-4.568-4.447-5.243l3.844-0.58l-1.922,0.29l1.669-0.931c0.25,0.335,1.888,2.06,3.788,4.059
								C2527.663,2348.397,2580.98,2436.697,2591.024,2505.68z"/>
							<path style="fill:#FCFDFE;" d="M2612.627,2702.562l-3.836-0.505c12.765-75.318,118.204-133.104,119.266-133.678l1.918,3.105
								C2728.928,2572.051,2625.101,2628.969,2612.627,2702.562z"/>
							<path style="fill:#FCFDFE;" d="M2612.968,2743.11c-31.797-53.32-81.285-99.677-151.291-141.719l2.148-3.034
								c70.542,42.366,120.441,89.134,152.549,142.973L2612.968,2743.11z"/>
							<path style="fill:#FCFDFE;" d="M2734.329,1668.566l-3.793-0.718c19.896-84.38,19.778-177.002,19.739-207.437
								c-0.009-7.368-0.003-9.961,0.168-10.866l3.825,0.57c-0.121,0.693-0.115,4.904-0.108,10.237
								C2754.198,1490.884,2754.316,1583.8,2734.329,1668.566z"/>
							<path style="fill:#FCFDFE;" d="M2680.172,1801.64l-3.38-1.726c42.871-70.885,210.799-115.934,217.927-117.818l1.009,3.464
								C2893.999,1686.018,2722.243,1732.079,2680.172,1801.64z"/>
						</g>
					</g>
				</g>
				<g>
					
						<linearGradient id="SVGID_00000001663759058682532480000016475887369491670429_" gradientUnits="userSpaceOnUse" x1="3215.0295" y1="2375.6125" x2="3867.7671" y2="3450.187" gradientTransform="matrix(-0.9948 0.1015 0.1015 0.9948 5945.1616 -947.3667)">
						<stop  offset="0" style="stop-color:#FF9085"/>
						<stop  offset="1" style="stop-color:#FB6FBB"/>
					</linearGradient>
					<path style="fill:url(#SVGID_00000001663759058682532480000016475887369491670429_);" d="M2654.425,2862.087
						c-12.919-0.301-52.688,119.331-98.481,38.911c-11.44-20.091-29.503-91.811-124.329-85.411
						c-18.407,1.242-36.815,2.482-55.222,3.725c-20.033-39.57-31.583-80.576,22.437-102.1
						c83.891-33.425,69.082-177.668,39.312-226.172c-36.844-60.033-119.599-201.475,9.229-255.076
						c107.248-44.624,186.159-52.72,178.082-188.578c-8.077-135.86,60.138-228.161,190.861-233.488
						c137.566-5.606,229.411-188.71,348.039-142.839c206.702,79.93,65.024,395.743-161.957,506.374
						c-226.979,110.631-81.501,177.266-62.126,287.133c1.221,10.301,2.319,26.365,0.016,45.571
						c-14.182,118.245-132.752,150.603-209.26,254.118C2626.684,2905.428,2676.19,2862.594,2654.425,2862.087z"/>
					<g>
						<defs>
							<path id="SVGID_00000172400373487752787630000017359592583948956322_" d="M2688.175,2822.256l-297.841,28.426
								c-21.688-38.135-51.844-109.427,8.497-133.469c83.891-33.426,69.082-177.669,39.313-226.173
								c-36.845-60.033-119.599-201.475,9.229-255.077c107.248-44.623,186.158-52.719,178.081-188.578
								c-8.076-135.859,60.139-228.161,190.862-233.488c137.565-5.606,229.41-188.711,348.038-142.839
								c206.703,79.93,65.024,395.741-161.956,506.372c-226.979,110.631-81.502,177.266-62.127,287.133
								c26.451,149.993-193.477,140.003-243.609,205.159C2657.36,2720.801,2673.194,2784.072,2688.175,2822.256z"/>
						</defs>
						<clipPath id="SVGID_00000078737210702681241700000000304564542312906152_">
							<use xlink:href="#SVGID_00000172400373487752787630000017359592583948956322_"  style="overflow:visible;"/>
						</clipPath>
						<g style="opacity:0.5;clip-path:url(#SVGID_00000078737210702681241700000000304564542312906152_);">
							<path style="fill:#FCFDFE;" d="M2543.115,2791.426l-6.461-0.571c43.512-445.633,316.051-868.781,711.263-1104.312l3.47,5.178
								C2857.84,1926.26,2586.446,2347.644,2543.115,2791.426z"/>
							<path style="fill:#FCFDFE;" d="M2588.897,2550.418l-6.451,0.644c-19.893-174.93-194.077-295.476-195.835-296.673l3.792-4.961
								C2392.184,2250.638,2568.689,2372.731,2588.897,2550.418z"/>
							<path style="fill:#FCFDFE;" d="M2553.488,2709.657l-6.006-2.325c71.475-164.972,410.395-221.083,413.811-221.63l1.097,6.036
								C2959.011,2492.281,2623.604,2547.822,2553.488,2709.657z"/>
							<path style="fill:#FCFDFE;" d="M2774.919,2148.662l-6.196-1.831c44.646-134.981-67.2-324.696-68.334-326.596l5.649-3.001
								C2707.187,1819.157,2820.391,2011.188,2774.919,2148.662z"/>
							<path style="fill:#FCFDFE;" d="M2957.334,1922.737l-3.97-4.851c135.165-98.361,364.574-74.32,366.879-74.063l-0.743,6.081
								C3317.223,1849.648,3090.392,1825.906,2957.334,1922.737z"/>
						</g>
					</g>
				</g>
			</g>
		</g>
		<g>
			<g>
				
					<linearGradient id="SVGID_00000101083076677051993990000000384448717175667081_" gradientUnits="userSpaceOnUse" x1="4276.8379" y1="1790.7017" x2="2557.0405" y2="2522.2573" gradientTransform="matrix(1 0.0219 0 1 0 -14.4292)">
					<stop  offset="0.0036" style="stop-color:#E38DDD"/>
					<stop  offset="1" style="stop-color:#9571F6"/>
				</linearGradient>
				<polygon style="fill:url(#SVGID_00000101083076677051993990000000384448717175667081_);" points="2814.655,3200.862 
					2226.408,3178.104 2226.408,1956.253 2814.655,1941.95 				"/>
				
					<linearGradient id="SVGID_00000013880449128882190260000004877924127498259896_" gradientUnits="userSpaceOnUse" x1="2946.125" y1="2395.0693" x2="3559.8179" y2="3405.3662" gradientTransform="matrix(1 0.0219 0 1 0 -14.4292)">
					<stop  offset="0.0036" style="stop-color:#E38DDD"/>
					<stop  offset="1" style="stop-color:#9571F6"/>
				</linearGradient>
				<polygon style="fill:url(#SVGID_00000013880449128882190260000004877924127498259896_);" points="3241.52,3173.615 
					2814.655,3200.862 2814.655,1941.95 3241.52,1962.912 				"/>
			</g>
			
				<linearGradient id="SVGID_00000022525603614804374240000017239671461194199442_" gradientUnits="userSpaceOnUse" x1="2224.0354" y1="2580.0288" x2="2782.8821" y2="2580.0288">
				<stop  offset="0.0036" style="stop-color:#E38DDD"/>
				<stop  offset="1" style="stop-color:#9571F6"/>
			</linearGradient>
			<path style="opacity:0.3;fill:url(#SVGID_00000022525603614804374240000017239671461194199442_);" d="M2782.882,3199.683
				l-558.847-21.579V1960.375c35.783,11.93,117.11,56.948,117.11,201.082c0,51.676,12.328,105.349,60.018,132.357
				c52.755,29.876,119.354,30.836,175.532,51.208c125.216,45.406,154.743,197.9,98.505,307.008
				c-23.719,46.017-59.944,83.128-79.521,132.256c-16.863,42.314-22.524,87.558-13.227,132.371
				c17.234,83.065,75.325,152.114,131.921,212.261C2736.973,3152.935,2759.667,3176.265,2782.882,3199.683z"/>
		</g>
		<g>
			<g>
				
					<linearGradient id="SVGID_00000133498721533491512850000017198949692804137909_" gradientUnits="userSpaceOnUse" x1="3574.9121" y1="1956.8265" x2="2085.4202" y2="2590.4163">
					<stop  offset="0.0036" style="stop-color:#E38DDD"/>
					<stop  offset="1" style="stop-color:#9571F6"/>
				</linearGradient>
				<polygon style="fill:url(#SVGID_00000133498721533491512850000017198949692804137909_);" points="1808.958,2412.922 
					1808.958,3260.805 1761.134,3257.917 1240.014,3226.066 1240.014,2397.24 				"/>
				
					<linearGradient id="SVGID_00000094581243596530767110000010122531926132862337_" gradientUnits="userSpaceOnUse" x1="2013.1804" y1="2728.6907" x2="2468.0752" y2="3477.5647" gradientTransform="matrix(1 0.0219 0 1 0 -14.4292)">
					<stop  offset="0.0036" style="stop-color:#E38DDD"/>
					<stop  offset="1" style="stop-color:#9571F6"/>
				</linearGradient>
				<polygon style="fill:url(#SVGID_00000094581243596530767110000010122531926132862337_);" points="2305.648,3220.259 
					1808.876,3260.809 1808.876,2412.907 2305.648,2402.962 				"/>
				
					<linearGradient id="SVGID_00000103946431593631802330000007730036184880266112_" gradientUnits="userSpaceOnUse" x1="1557.2288" y1="2039.662" x2="1822.3258" y2="2481.8867">
					<stop  offset="0.0036" style="stop-color:#E38DDD"/>
					<stop  offset="1" style="stop-color:#AC79EF"/>
					<stop  offset="1" style="stop-color:#9571F6"/>
				</linearGradient>
				<polygon style="fill:url(#SVGID_00000103946431593631802330000007730036184880266112_);" points="1240.95,2397.242 
					1781.111,2374.798 2305.648,2402.962 1802.958,2420.806 				"/>
			</g>
			
				<linearGradient id="SVGID_00000009587385430575879890000013317467624177546372_" gradientUnits="userSpaceOnUse" x1="1240.0144" y1="2832.3618" x2="1761.0878" y2="2832.3618">
				<stop  offset="0.0036" style="stop-color:#E38DDD"/>
				<stop  offset="1" style="stop-color:#9571F6"/>
			</linearGradient>
			<path style="opacity:0.3;fill:url(#SVGID_00000009587385430575879890000013317467624177546372_);" d="M1761.088,3257.917
				l-521.073-31.85v-819.259c35.783,11.93,115.795,56.948,115.795,201.082c0,178.198,155.924,103.167,244.085,180.073
				c88.161,76.906,95.546,172.345,29.894,288.755C1574.003,3175.646,1700.95,3197.254,1761.088,3257.917z"/>
		</g>
		<path style="fill:#D8DEE8;" d="M756.045,2204.565c0,0,1441.615,141.767,1880.794-1020.482l132.127,162.173l-144.182-649.839
			l-355.703,415.429l180.408-6.091C2449.489,1105.756,2228.274,1918.13,756.045,2204.565z"/>
		<g>
			
				<linearGradient id="SVGID_00000168095505761737027060000008049092444702008507_" gradientUnits="userSpaceOnUse" x1="210.5895" y1="2164.2656" x2="267.3515" y2="2164.2656" gradientTransform="matrix(0.9885 -0.1514 0.1514 0.9885 280.4725 249.0755)">
				<stop  offset="0.0036" style="stop-color:#F36F56"/>
				<stop  offset="1" style="stop-color:#FFC444"/>
			</linearGradient>
			<path style="fill:url(#SVGID_00000168095505761737027060000008049092444702008507_);" d="M842.329,2330.249l-23.026,32.424
				c0,0-4.739,20.519,9.289,13.611l41.58-42.979L842.329,2330.249z"/>
			
				<linearGradient id="SVGID_00000176022542427195639020000000641551461914681484_" gradientUnits="userSpaceOnUse" x1="1245.2015" y1="2413.4934" x2="828.0244" y2="2846.7153" gradientTransform="matrix(0.9706 -0.2407 0.2407 0.9706 -590.4098 -211.8417)">
				<stop  offset="0" style="stop-color:#AB316D"/>
				<stop  offset="1" style="stop-color:#792D3D"/>
			</linearGradient>
			<path style="fill:url(#SVGID_00000176022542427195639020000000641551461914681484_);" d="M1359.202,1688.208
				c-30.797,99.822-92.038,251.525-218.54,406.707c-93.652,114.883-193.233,195.07-270.632,248.094
				c-5.321,1.193-14.341,2.531-25.152,0.729c-8.034-1.34-14.294-3.953-18.475-6.097c7.095-28.221,20.767-69.75,49.291-113.908
				c52.194-80.804,93.167-76.047,144.864-147.078c37.854-52.01,53.005-108.53,83.307-221.569
				c23.399-87.286,24.922-108.355,50.113-132.447C1204.909,1673.928,1293.697,1677.846,1359.202,1688.208z"/>
			<g style="opacity:0.2;">
				
					<linearGradient id="SVGID_00000010290113763661003530000015196384592740727718_" gradientUnits="userSpaceOnUse" x1="1209.5699" y1="2400.5569" x2="802.6683" y2="2823.1082" gradientTransform="matrix(0.9706 -0.2407 0.2407 0.9706 -590.4098 -211.8417)">
					<stop  offset="0" style="stop-color:#AB316D"/>
					<stop  offset="1" style="stop-color:#792D3D"/>
				</linearGradient>
				<path style="fill:url(#SVGID_00000010290113763661003530000015196384592740727718_);" d="M892.066,2243.432
					c18.244-23.495,49.334-47.35,110.661-94.407c63.38-48.632,60.416-39.41,73.257-54.079
					c57.49-65.678,34.257-140.146,53.582-227.617c10.783-48.801,38.628-111.877,111.435-180.42
					c-32.092,3.856-63.288,14.065-87.023,35.729c-29.142,26.599-29.108,54.094-50.113,132.447
					c-30.302,113.04-45.454,169.559-83.307,221.569c-51.697,71.031-92.669,66.274-144.864,147.078
					c-28.523,44.157-42.196,85.686-49.291,113.908c4.182,2.145,10.442,4.758,18.475,6.097c6.371,1.061,12.093,1.021,16.83,0.574
					C862.042,2286.344,882.811,2255.351,892.066,2243.432z"/>
			</g>
			
				<linearGradient id="SVGID_00000143588775496385168390000006147524424673824916_" gradientUnits="userSpaceOnUse" x1="6372.3882" y1="-6497.6392" x2="6265.2534" y2="-6121.7593" gradientTransform="matrix(-0.1775 0.9841 -0.9841 -0.1775 -4021.1711 -4819.3716)">
				<stop  offset="0" style="stop-color:#444B8C"/>
				<stop  offset="0.9964" style="stop-color:#26264F"/>
			</linearGradient>
			<path style="fill:url(#SVGID_00000143588775496385168390000006147524424673824916_);" d="M805.175,2358.184l-3.829,72.68
				c-0.237,4.479,4.825,6.896,7.766,3.73c2.898-3.12,5.414-7.576,5.278-13.591c-0.311-13.916,20.018-43.138,17.199-57.55
				c-0.921-4.708-10.722-9.4-13.366-11.577C813.031,2347.602,805.542,2351.216,805.175,2358.184z"/>
			
				<linearGradient id="SVGID_00000137817217827780946480000016967448383233304244_" gradientUnits="userSpaceOnUse" x1="-3593.2451" y1="-7.2555" x2="-3550.0876" y2="-7.2555" gradientTransform="matrix(0.5485 -0.8362 0.8362 0.5485 3706.5725 -1059.0251)">
				<stop  offset="0.0036" style="stop-color:#F36F56"/>
				<stop  offset="1" style="stop-color:#FFC444"/>
			</linearGradient>
			<path style="fill:url(#SVGID_00000137817217827780946480000016967448383233304244_);" d="M1712.821,1916.891l34.589,36.451
				c0,0,10.374-0.078,15.859-13.685l-25.87-44.497L1712.821,1916.891z"/>
			
				<linearGradient id="SVGID_00000037665850916453923010000014383736128968072607_" gradientUnits="userSpaceOnUse" x1="-2628.1736" y1="579.8857" x2="-2740.9128" y2="975.4296" gradientTransform="matrix(0.8143 -0.5804 0.5804 0.8143 3416.0415 -529.54)">
				<stop  offset="0" style="stop-color:#444B8C"/>
				<stop  offset="0.9964" style="stop-color:#26264F"/>
			</linearGradient>
			<path style="fill:url(#SVGID_00000037665850916453923010000014383736128968072607_);" d="M1760.327,1975.041l56.667-51.371
				c3.493-3.165,1.179-8.932-3.534-8.864c-4.644,0.067-9.964,1.433-14.287,6.038c-10.005,10.652-47.99,16.612-56.332,29.597
				c-2.725,4.242,1.746,15.417,2.28,19.113C1746.172,1976.812,1754.894,1979.967,1760.327,1975.041z"/>
			<g>
				
					<linearGradient id="SVGID_00000078010905280249595250000009939248638938760348_" gradientUnits="userSpaceOnUse" x1="-932.6828" y1="1392.599" x2="-1304.2571" y2="1697.8212" gradientTransform="matrix(0.9102 -0.4142 0.4142 0.9102 1792.9531 -49.4701)">
					<stop  offset="0" style="stop-color:#AB316D"/>
					<stop  offset="1" style="stop-color:#792D3D"/>
				</linearGradient>
				<path style="fill:url(#SVGID_00000078010905280249595250000009939248638938760348_);" d="M1750.885,1912.481
					c-0.148,0.067-3.387,1.684-29.41,25.132c-3.982-0.175-8.346-1.418-13.038-3.541c-44.656-20.062-117.471-120.324-138.165-176.24
					c-22.908-61.793-81.648,0.571-277.095,57.159c-147.835,42.832-179.571-44.364-186.221-89.389
					c-2.159-14.49-10.029-34.106-10.029-34.106s80.176-24.147,173.314-49.01c96.656-25.803,190.159-21.496,300.66-13.799
					C1681.389,1636.353,1750.885,1912.481,1750.885,1912.481z"/>
				
					<linearGradient id="SVGID_00000098210366499508736440000018401725056460689848_" gradientUnits="userSpaceOnUse" x1="-346.1627" y1="1926.5703" x2="-1299.1415" y2="1413.092" gradientTransform="matrix(0.9102 -0.4142 0.4142 0.9102 1792.9531 -49.4701)">
					<stop  offset="0" style="stop-color:#AB316D"/>
					<stop  offset="1" style="stop-color:#792D3D"/>
				</linearGradient>
				<path style="opacity:0.3;fill:url(#SVGID_00000098210366499508736440000018401725056460689848_);" d="M1570.272,1757.832
					c-22.908-61.793-81.648,0.571-277.095,57.159c-147.835,42.832-179.571-44.364-186.221-89.389
					c13.516,1.94,33.714,9.746,63.616,27.261c37.107,21.724,78.575,36.032,121.203,41.579c39.333,5.096,83.335-21.426,99.06-29.682
					c56.695-29.743,65.134-93.701,109.438-94.062c43.781-0.337,81.58,54.254,111.934,98.96
					c31.989,47.049,29.228,61.721,53.49,104.195c12.877,22.601,27.47,42.576,42.74,60.22
					C1663.781,1914.01,1590.966,1813.748,1570.272,1757.832z"/>
			</g>
			
				<linearGradient id="SVGID_00000183214234130558176210000002428394257060847546_" gradientUnits="userSpaceOnUse" x1="-289.4915" y1="-3168.7876" x2="-275.4398" y2="-3123.9131" gradientTransform="matrix(0.8374 -0.5465 0.5465 0.8374 3575.3733 3506.3831)">
				<stop  offset="0.0036" style="stop-color:#F36F56"/>
				<stop  offset="1" style="stop-color:#FFC444"/>
			</linearGradient>
			<path style="fill:url(#SVGID_00000183214234130558176210000002428394257060847546_);" d="M1570.52,1029.145
				c1.623-3.168,2.302-16.262-1.366-23.094c-3.668-6.831-10.672-16.757-6.438-24.001c4.234-7.244,1.51-29.188,15.393-27.705
				c13.883,1.483,34.821,20.238,24.007,36.784c-10.814,16.547-10.737,33.628-9.618,38.17
				C1593.616,1033.84,1570.52,1029.145,1570.52,1029.145z"/>
			
				<linearGradient id="SVGID_00000112622353024398876050000011374923045830701710_" gradientUnits="userSpaceOnUse" x1="254.8141" y1="943.8818" x2="371.7388" y2="1947.8173" gradientTransform="matrix(0.979 -0.204 0.204 0.979 877.2056 75.1971)">
				<stop  offset="0.0036" style="stop-color:#F36F56"/>
				<stop  offset="1" style="stop-color:#FFC444"/>
			</linearGradient>
			<path style="fill:url(#SVGID_00000112622353024398876050000011374923045830701710_);" d="M1602.865,1027.848
				c0.919,38.445-2.438,72.37-9.259,102.332c-23.032,101.474-85.493,157.352-153.898,188.501
				c-99.226,45.227-211.016,38.401-233.46,43.111c-3.535,0.77-5.477,1.108-5.477,1.108s13.719-71.752,20.119-133.499
				c18.723-2.78,36.04-6.917,52.102-12.013c0.651-0.201,1.296-0.435,1.947-0.637c7.752-2.539,15.129-5.297,22.257-8.301
				c71.268-29.766,136.008,6.827,202.099-63.928c39.982-42.779,58.837-122.497,58.837-122.497l12.822,1.683L1602.865,1027.848z"/>
			
				<linearGradient id="SVGID_00000121240379376416496570000012844506307920616075_" gradientUnits="userSpaceOnUse" x1="293.6683" y1="1108.1259" x2="360.0474" y2="1678.0687" gradientTransform="matrix(0.979 -0.204 0.204 0.979 877.2056 75.1971)">
				<stop  offset="0.0036" style="stop-color:#F36F56"/>
				<stop  offset="1" style="stop-color:#FFC444"/>
			</linearGradient>
			<path style="opacity:0.3;fill:url(#SVGID_00000121240379376416496570000012844506307920616075_);" d="M1593.606,1130.18
				c-23.032,101.474-85.493,157.352-153.898,188.501c-22.581,0.417-44.082,1.104-62.071,13.893
				c-40.343,28.7-108.554-18.686-108.554-18.686s-0.224-47.301-0.43-85.498c8.159,0.048,16.05-0.244,23.767-0.895
				c77.057-6.425,126.412,57.197,211.903,4.175C1544.476,1206.804,1579.764,1153.059,1593.606,1130.18z"/>
			<g>
				
					<linearGradient id="SVGID_00000023280485352257049890000007744394330849445272_" gradientUnits="userSpaceOnUse" x1="-2179.729" y1="1258.9617" x2="-2188.6545" y2="1151.8541" gradientTransform="matrix(-0.9989 -0.0475 -0.0475 0.9989 -872.4364 -222.4598)">
					<stop  offset="0" style="stop-color:#444B8C"/>
					<stop  offset="0.9964" style="stop-color:#26264F"/>
				</linearGradient>
				<path style="fill:url(#SVGID_00000023280485352257049890000007744394330849445272_);" d="M1272.229,1125.148
					c8.856-13.783,11.891-13.388,14.483-20.875c5.907-17.061-2.499-40.347-11.51-41.574c-5.809-0.791-7.213,8.222-20.988,21.092
					c-16.876,15.765-25.819,12.562-36.242,26.678c-2.439,3.301-13.411,18.164-8.852,30.551c5.819,15.81,34.557,21.142,47.851,10.754
					C1263.277,1146.847,1261.318,1142.128,1272.229,1125.148z"/>
				
					<linearGradient id="SVGID_00000118373584666568034360000005524039772112528563_" gradientUnits="userSpaceOnUse" x1="1757.4044" y1="984.9642" x2="1786.8115" y2="1426.0679" gradientTransform="matrix(0.9949 0.1011 -0.1011 0.9949 -376.2286 -116.2788)">
					<stop  offset="0.0036" style="stop-color:#F36F56"/>
					<stop  offset="1" style="stop-color:#FFC444"/>
				</linearGradient>
				<path style="fill:url(#SVGID_00000118373584666568034360000005524039772112528563_);" d="M1248.91,1138.621
					c0,0,2.368,28.147-3.598,50.231c-5.394,19.958-45.137,37.221-52.958,42.535c-7.82,5.313,17.833,14.55,42.3,13.844
					c24.465-0.704,92.725-15.138,103.969-25.908c11.245-10.769-11.089-7.17-29.149-11.261c-18.06-4.091-32.401-36.512-31.344-52.208
					C1279.186,1140.157,1248.91,1138.621,1248.91,1138.621z"/>
				<g>
					
						<linearGradient id="SVGID_00000076605665599899921440000009978194905227553942_" gradientUnits="userSpaceOnUse" x1="4756.8271" y1="1925.8258" x2="4841.0063" y2="2014.5551" gradientTransform="matrix(0.9872 -0.1594 0.1594 0.9872 -3811.45 -60.3895)">
						<stop  offset="0.0036" style="stop-color:#F36F56"/>
						<stop  offset="1" style="stop-color:#FFC444"/>
					</linearGradient>
					<path style="fill:url(#SVGID_00000076605665599899921440000009978194905227553942_);" d="M1254.688,1160.036
						c0,0,17.658,9.996,35.361-1.432c15.849-10.232-2.286-48.456-17.15-50.432c-4.959-0.659-12.582,2.167-17.399,6.945
						c-2.845,2.822-3.204,4.859-7.944,9.381c-4.369,4.169-6.129,4.406-6.947,6.564c-1.025,2.697-0.221,7.463,9.006,16.453
						c-4.907-1.431-9.353-0.551-11.32,2.195c-0.313,0.438-1.015,1.836-1.002,3.352
						C1237.342,1158.558,1244.185,1161.795,1254.688,1160.036z"/>
				</g>
			</g>
			<g>
				
					<linearGradient id="SVGID_00000049220291064104065290000011161885795592098443_" gradientUnits="userSpaceOnUse" x1="1788.6027" y1="4597.374" x2="1923.3705" y2="852.8099" gradientTransform="matrix(0.9999 0.0159 -0.0159 0.9999 -95.8939 -37.3501)">
					<stop  offset="0" style="stop-color:#AA80F9"/>
					<stop  offset="0.9964" style="stop-color:#6165D7"/>
				</linearGradient>
				<path style="fill:url(#SVGID_00000049220291064104065290000011161885795592098443_);" d="M2079.336,848.342l-4.417,278.431
					c-0.476,29.999-18.915,57.48-51.021,79.664c-7.693,5.309-15.807,10.343-24.942,15.011
					c-49.824,25.559-119.513,40.854-196.579,39.632s-146.038-18.718-195.026-45.844c-46.35-25.633-74.135-59.844-73.545-97.046
					l4.417-278.431L2079.336,848.342z"/>
				
					<linearGradient id="SVGID_00000170957730019169298700000008443097337409073084_" gradientUnits="userSpaceOnUse" x1="1887.7523" y1="1267.2837" x2="1897.5753" y2="994.3481" gradientTransform="matrix(0.9999 0.0159 -0.0159 0.9999 -95.8939 -37.3501)">
					<stop  offset="0" style="stop-color:#AA80F9"/>
					<stop  offset="0.9964" style="stop-color:#6165D7"/>
				</linearGradient>
				<path style="opacity:0.3;fill:url(#SVGID_00000170957730019169298700000008443097337409073084_);" d="M2024.554,1206.448
					c-7.693,5.309-16.135,10.338-25.27,15.005c-49.824,25.559-119.677,40.852-196.743,39.629
					c-77.066-1.222-146.121-18.719-195.108-45.845c-46.35-25.633-74.217-59.845-73.627-97.047l2.286-144.078
					c36.25,17.406,91.023,51.239,100.178,104.647c14.322,83.577,128.245,113.616,242.409,96.606
					C1928.969,1167.854,1981.121,1181.721,2024.554,1206.448z"/>
				
					<linearGradient id="SVGID_00000176027921901859256170000008069421465774463368_" gradientUnits="userSpaceOnUse" x1="1965.176" y1="581.3963" x2="1908.9175" y2="1001.1017" gradientTransform="matrix(0.9999 0.0159 -0.0159 0.9999 -95.8939 -37.3501)">
					<stop  offset="0" style="stop-color:#AA80F9"/>
					<stop  offset="0.9964" style="stop-color:#6165D7"/>
				</linearGradient>
				<polygon style="fill:url(#SVGID_00000176027921901859256170000008069421465774463368_);" points="2222.328,877.175 
					1818.258,669.587 1407.807,864.254 1391.734,863.999 1391.629,870.604 1391.629,870.604 1811.574,1086.51 2238.156,884.033 
					2238.156,884.033 2238.261,877.428 				"/>
				
					<linearGradient id="SVGID_00000006678065397306624880000002493806086721310339_" gradientUnits="userSpaceOnUse" x1="1957.6628" y1="462.3828" x2="1884.1831" y2="1396.1158" gradientTransform="matrix(0.9999 0.0159 -0.0159 0.9999 -95.8939 -37.3501)">
					<stop  offset="0" style="stop-color:#AA80F9"/>
					<stop  offset="0.9964" style="stop-color:#6165D7"/>
				</linearGradient>
				<polygon style="fill:url(#SVGID_00000006678065397306624880000002493806086721310339_);" points="1818.409,660.063 
					1391.502,862.536 1811.772,1078.447 2238.68,875.975 				"/>
				<g>
					
						<linearGradient id="SVGID_00000085222369676772541030000006579793362728159655_" gradientUnits="userSpaceOnUse" x1="2379.5308" y1="591.0003" x2="1886.0994" y2="1449.2318" gradientTransform="matrix(0.9999 0.0159 -0.0159 0.9999 -95.8939 -37.3501)">
						<stop  offset="0" style="stop-color:#FFC444"/>
						<stop  offset="0.9964" style="stop-color:#F36F56"/>
					</linearGradient>
					<path style="fill:url(#SVGID_00000085222369676772541030000006579793362728159655_);" d="M2232.017,1166.374
						c-3.107-0.049-4.94-2.597-4.89-5.704l4.35-274.211c0.098-6.203-5.165-12.542-11.368-12.64l-404.988-6.424
						c-3.107-0.049-5.595-1.963-5.546-5.069c0.049-3.106,2.597-4.94,5.704-4.89l404.988,6.424
						c12.406,0.197,21.366,10.351,21.169,22.757l-4.35,274.211C2237.037,1163.934,2235.124,1166.423,2232.017,1166.374z"/>
				</g>
				
					<linearGradient id="SVGID_00000007400526194864111280000005738047816864230333_" gradientUnits="userSpaceOnUse" x1="2325.0747" y1="1363.1892" x2="2357.4238" y2="1060.7955" gradientTransform="matrix(0.9999 0.0159 -0.0159 0.9999 -95.8939 -37.3501)">
					<stop  offset="0" style="stop-color:#FFC444"/>
					<stop  offset="0.9964" style="stop-color:#F36F56"/>
				</linearGradient>
				<path style="fill:url(#SVGID_00000007400526194864111280000005738047816864230333_);" d="M2246.233,1116.754l-4.475-8.588
					c-1.779-3.259-5.089-5.284-8.802-5.283s-7.075,2.031-8.852,5.291l-4.662,8.791c-1.157,2.124-1.655,4.499-1.694,6.918
					l-1.183,74.597c-0.025,1.602,6.35,3.002,14.893,3.137s14.959-1.061,14.985-2.663l1.187-74.808
					C2247.67,1121.563,2247.471,1119.021,2246.233,1116.754z"/>
			</g>
			
				<linearGradient id="SVGID_00000085955377872663104890000017372793421091397821_" gradientUnits="userSpaceOnUse" x1="-2254.0005" y1="1168.1573" x2="-2230.5867" y2="1242.9303" gradientTransform="matrix(-0.9943 -0.1068 -0.1068 0.9943 -372.2069 -127.1712)">
				<stop  offset="0.0036" style="stop-color:#F36F56"/>
				<stop  offset="1" style="stop-color:#FFC444"/>
			</linearGradient>
			<path style="fill:url(#SVGID_00000085955377872663104890000017372793421091397821_);" d="M1727.227,1271.342
				c0,0,15.079-0.474,13.495-29.345c-1.242-22.632,2.312-29.815,7.139-25.31c4.825,4.507,4.186,17.44,4.186,17.44
				s20.905-14.276,31.09-34.833c10.185-20.555,13.318-1.988,13.857,8.895c0.541,10.883-15.983,42.722-23.972,48.132
				c-7.987,5.408-21.622,31.565-21.622,31.565L1727.227,1271.342z"/>
			
				<linearGradient id="SVGID_00000082345946520782810350000009030742526658005907_" gradientUnits="userSpaceOnUse" x1="186.7896" y1="981.5227" x2="355.7759" y2="2432.4688" gradientTransform="matrix(0.979 -0.204 0.204 0.979 877.2056 75.1971)">
				<stop  offset="0.0036" style="stop-color:#F36F56"/>
				<stop  offset="1" style="stop-color:#FFC444"/>
			</linearGradient>
			<path style="fill:url(#SVGID_00000082345946520782810350000009030742526658005907_);" d="M1765.285,1288.541
				c0,0-9.914,52.482-44.087,98.438l-0.026,0.038c-1.773,2.415-3.649,4.819-5.592,7.204c-1.13,1.39-2.284,2.818-3.482,4.19
				c-26.612,30.787-60.347,52.566-100.024,61.66c-53.912,12.357-104.157,3.362-154.888-17.311
				c-12.509-5.081-24.761-11.469-36.983-17.236c-4.686-2.224-14.979-10.604-20.213-10.074c-7.919,0.792,7.119,40.815,8.356,44.847
				c13.889,45.904,15.268,95.901,11.14,143.382c-3.47,40.185-17.658,81.976-49.916,108.463
				c-19.441,15.963-47.692,22.411-72.404,23.371c0,0-16.083,2.461-39.646,3.544c-13.66,0.636-29.863,0.78-46.937-0.248
				c-26.461-1.579-54.986-6.094-79.368-16.223c-31.247-12.988-55.689-35.279-60.146-72.657c-1.164-9.854-2.069-20.85-2.603-32.749
				c-2.897-59.974,2.534-142.834,21.832-218.058c2.001-7.808,4.15-15.547,6.458-23.156
				c21.444-70.623,56.328-131.212,109.559-154.283c5.681-2.504,11.587-4.559,17.694-6.129
				c140.663-36.376,207.248,5.112,251.3,72.578c44.047,67.434,174.116,117.006,251.408-37.416L1765.285,1288.541z"/>
			
				<linearGradient id="SVGID_00000126304241031360166770000015716973661727464366_" gradientUnits="userSpaceOnUse" x1="-12.8252" y1="1294.845" x2="393.4424" y2="1733.1857" gradientTransform="matrix(0.979 -0.204 0.204 0.979 877.2056 75.1971)">
				<stop  offset="0.0036" style="stop-color:#F36F56"/>
				<stop  offset="1" style="stop-color:#FFC444"/>
			</linearGradient>
			<path style="opacity:0.3;fill:url(#SVGID_00000126304241031360166770000015716973661727464366_);" d="M1721.172,1387.018
				c-1.773,2.415-3.649,4.819-5.592,7.204c-1.13,1.39-2.284,2.818-3.482,4.19c-26.612,30.787-60.347,52.566-100.024,61.66
				c-53.912,12.357-104.157,3.362-154.888-17.311c-12.509-5.081-24.761-11.469-36.983-17.236
				c-4.686-2.224-14.979-10.604-20.213-10.074c-7.919,0.792,7.119,40.815,8.356,44.847c13.889,45.904,15.268,95.901,11.14,143.382
				c-3.47,40.185-17.658,81.976-49.916,108.463c-19.441,15.963-47.692,22.411-72.404,23.371c0,0-16.083,2.461-39.646,3.544
				c-13.66,0.636-29.863,0.78-46.937-0.248c-29.345-4.179-57.015-9.498-79.368-16.223c-31.247-12.988-55.689-35.279-60.146-72.657
				c-1.164-9.854-2.069-20.85-2.603-32.749c6.249-19.251,23.934-36.663,64.841-43.505c106.27-17.759,114.367,1.934,114.251-68.122
				c-0.084-70.063,6.788-116.566,69.906-114.345c63.127,2.253,53.802-79.38,112.522-50.935
				C1488.706,1368.717,1597.89,1513.443,1721.172,1387.018z"/>
		</g>
		<g>
			
				<linearGradient id="SVGID_00000078765856521392842330000014659611599978184320_" gradientUnits="userSpaceOnUse" x1="3912.4785" y1="3000.7292" x2="3731.6694" y2="3609.7715" gradientTransform="matrix(1 0 0 1 -1675.0461 0)">
				<stop  offset="0" style="stop-color:#40447E"/>
				<stop  offset="0.9964" style="stop-color:#3C3B6B"/>
			</linearGradient>
			<path style="fill:url(#SVGID_00000078765856521392842330000014659611599978184320_);" d="M2399.107,3359.88l-404.026-11.26
				c-46.08-2.105-82.768-59.808-82.768-128.673v-0.757c0-68.865,36.688-125.639,82.768-126.578l432.298-14.624L2399.107,3359.88z"/>
			<g>
				<path style="fill:#F4F7FA;" d="M3114.119,3326.044l-670.98,26.459c-62.77,2.475-114.3-43.395-114.3-102.485v-40.086
					c0-59.09,51.53-107.591,114.3-108.32l670.98-7.793V3326.044z"/>
				
					<linearGradient id="SVGID_00000059307378305916277860000001496611207865046181_" gradientUnits="userSpaceOnUse" x1="3986.0017" y1="3224.7017" x2="4803.7959" y2="3224.7017" gradientTransform="matrix(1 0 0 1 -1675.0461 0)">
					<stop  offset="0" style="stop-color:#40447E"/>
					<stop  offset="0.9964" style="stop-color:#3C3B6B"/>
				</linearGradient>
				<path style="fill:url(#SVGID_00000059307378305916277860000001496611207865046181_);" d="M3120.614,3338.164l-709.686,29.038
					c-54.853,2.244-99.973-58.719-99.973-135.922v-0.848c0-77.204,45.12-140.474,99.973-141.035l709.686-7.255
					c4.495-0.046,8.136,5.452,8.136,12.281s-3.64,12.412-8.136,12.471l-709.686,9.361c-44.163,0.583-80.412,51.581-80.412,113.678
					v0.847c0,62.098,36.249,111.242,80.412,109.566l709.686-26.933c4.495-0.171,8.136,5.227,8.136,12.055
					C3128.75,3332.295,3125.109,3337.98,3120.614,3338.164z"/>
			</g>
			<g>
				<path style="fill:#D8DEE8;" d="M2374.866,3082.63l-384.604,8.663c-35.349,0.796-63.534-27.19-63.534-62.496v-23.951
					c0-35.306,28.185-65.686,63.534-67.893l384.604-24.007V3082.63z"/>
				
					<linearGradient id="SVGID_00000144334640103864338220000018143756531433043886_" gradientUnits="userSpaceOnUse" x1="3571.3376" y1="2998.5867" x2="4105.0347" y2="3004.4194" gradientTransform="matrix(1 0 0 1 -1675.0461 0)">
					<stop  offset="0" style="stop-color:#FFC444"/>
					<stop  offset="0.9964" style="stop-color:#F36F56"/>
				</linearGradient>
				<path style="fill:url(#SVGID_00000144334640103864338220000018143756531433043886_);" d="M2320.747,3090.319l-325.665,9.108
					c-46.08,0.94-82.768-35.625-82.768-81.489v-0.504c0-45.864,36.688-85.54,82.768-88.508l325.665-25.468
					c5.712-0.361,71.962,3.923,71.962,8.942c0,5.019-61.88,8.821-67.552,9.159l-330.075,23.85
					c-37.229,2.24-66.994,34.232-66.994,71.354v0.506c0,37.123,29.764,66.59,66.994,65.673l325.665-10.689
					c5.672-0.149,71.962,4.956,71.962,9.975C2392.708,3087.247,2326.454,3090.19,2320.747,3090.319z"/>
			</g>
			<g>
				<polygon style="fill:#F4F7FA;" points="3114.119,3073.959 2328.839,3081.211 2328.839,2912.001 3114.119,2919.298 				"/>
				
					<linearGradient id="SVGID_00000171682347140136401690000003925227044832155560_" gradientUnits="userSpaceOnUse" x1="-1238.9797" y1="2392.9338" x2="-2672.0645" y2="2259.7534" gradientTransform="matrix(1 0 0 1 -1675.0461 0)">
					<stop  offset="0" style="stop-color:#FFC444"/>
					<stop  offset="0.9964" style="stop-color:#F36F56"/>
				</linearGradient>
				<path style="fill:url(#SVGID_00000171682347140136401690000003925227044832155560_);" d="M3120.614,2928.116l-799.867-6.593
					c-5.405-0.045-9.791-4.129-9.791-9.123s4.386-8.997,9.791-8.942l799.867,8.174c4.495,0.046,8.136,3.77,8.136,8.318
					C3128.75,2924.496,3125.109,2928.153,3120.614,2928.116z"/>
				
					<linearGradient id="SVGID_00000145019915581427970620000003729786300157026978_" gradientUnits="userSpaceOnUse" x1="-1253.8441" y1="2552.9656" x2="-2686.9268" y2="2419.7852" gradientTransform="matrix(1 0 0 1 -1675.0461 0)">
					<stop  offset="0" style="stop-color:#FFC444"/>
					<stop  offset="0.9964" style="stop-color:#F36F56"/>
				</linearGradient>
				<path style="fill:url(#SVGID_00000145019915581427970620000003729786300157026978_);" d="M3120.614,3082.141l-799.867,8.177
					c-5.405,0.055-9.791-3.948-9.791-8.942s4.386-9.078,9.791-9.123l799.867-6.597c4.495-0.037,8.136,3.62,8.136,8.167
					C3128.75,3078.372,3125.109,3082.095,3120.614,3082.141z"/>
			</g>
			<path style="opacity:0.5;fill:#FFFFFF;" d="M2290.822,3328.553l-85.876-4.905c-20.754-59.162-19.185-116.214,0-185.622
				l85.876,0.26C2273.606,3209.145,2276.225,3271.815,2290.822,3328.553z"/>
			<path style="fill:#D8DEE8;" d="M2112.81,3098.095l-2.731-107.117l-98.582,108.524c0,0-53.27,28.712-44.12,79.127l60.941-24.245
				l54.132,18.757C2082.449,3173.14,2083.806,3120.191,2112.81,3098.095z"/>
			
				<linearGradient id="SVGID_00000052791382710164535130000004453974420910934974_" gradientUnits="userSpaceOnUse" x1="3736.7971" y1="3118.8896" x2="3683.9861" y2="3040.7017" gradientTransform="matrix(1 0 0 1 -1675.0461 0)">
				<stop  offset="0" style="stop-color:#AA80F9"/>
				<stop  offset="0.9964" style="stop-color:#6165D7"/>
			</linearGradient>
			<path style="fill:url(#SVGID_00000052791382710164535130000004453974420910934974_);" d="M2000.414,2997.68l109.665-6.703
				c0,0-51.576,39.188-27.629,182.163c0,0-46.883-14.892-67.278-40.389l-47.795,45.878
				C1967.376,3178.628,1938.194,3051.509,2000.414,2997.68z"/>
		</g>
		<g>
			<g>
				
					<linearGradient id="SVGID_00000005258795967601703140000018395016705036485541_" gradientUnits="userSpaceOnUse" x1="3064.7327" y1="2089.7241" x2="1782.1785" y2="2635.2883">
					<stop  offset="0.0036" style="stop-color:#E38DDD"/>
					<stop  offset="1" style="stop-color:#9571F6"/>
				</linearGradient>
				<polygon style="fill:url(#SVGID_00000005258795967601703140000018395016705036485541_);" points="1032.475,2852.188 
					1032.475,3316.891 994.98,3314.527 488.58,3282.864 488.58,2822.852 				"/>
				
					<linearGradient id="SVGID_00000182510253667452312050000012150233660516935578_" gradientUnits="userSpaceOnUse" x1="1317.4495" y1="3042.9639" x2="1635.3959" y2="3566.3857" gradientTransform="matrix(1 0.0219 0 1 0 -14.4292)">
					<stop  offset="0.0036" style="stop-color:#E38DDD"/>
					<stop  offset="1" style="stop-color:#9571F6"/>
				</linearGradient>
				<polygon style="fill:url(#SVGID_00000182510253667452312050000012150233660516935578_);" points="1618.592,3277.018 
					1033.214,3316.876 1033.214,2852.176 1618.592,2826.101 				"/>
				
					<linearGradient id="SVGID_00000074413324375286734280000009467954255684044178_" gradientUnits="userSpaceOnUse" x1="884.8962" y1="2542.5608" x2="1164.9442" y2="3009.7258">
					<stop  offset="0.0036" style="stop-color:#E38DDD"/>
					<stop  offset="1" style="stop-color:#9571F6"/>
				</linearGradient>
				<polygon style="fill:url(#SVGID_00000074413324375286734280000009467954255684044178_);" points="489.194,2822.848 
					1034.867,2802.691 1618.592,2826.101 1033.214,2852.176 				"/>
			</g>
			
				<linearGradient id="SVGID_00000162312941404929260960000010121158598626630050_" gradientUnits="userSpaceOnUse" x1="488.5801" y1="3076.7175" x2="995.3416" y2="3076.7175">
				<stop  offset="0.0036" style="stop-color:#E38DDD"/>
				<stop  offset="1" style="stop-color:#9571F6"/>
			</linearGradient>
			<path style="opacity:0.3;fill:url(#SVGID_00000162312941404929260960000010121158598626630050_);" d="M995.342,3314.527
				l-506.762-31.663v-443.956c54.86,15.681,123.165,61.112,150.701,188.514C683.437,3231.918,943.644,3165.516,995.342,3314.527z"/>
		</g>
	</g>
</g>
</svg>
