<?xml version="1.0" encoding="utf-8"?>
<!-- Generator: Adobe Illustrator 27.5.0, SVG Export Plug-In . SVG Version: 6.00 Build 0)  -->
<svg version="1.1" xmlns="http://www.w3.org/2000/svg" xmlns:xlink="http://www.w3.org/1999/xlink" x="0px" y="0px"
	 viewBox="0 0 500 500" style="enable-background:new 0 0 500 500;" xml:space="preserve">
<g id="Background_Simple">
	<g>
		<path style="fill:#92E3A9;" d="M453.463,402.451c-1.772,2.788-3.611,5.523-5.527,8.191
			c-25.513,35.523-67.063,59.216-107.109,69.393c-17.544,4.466-35.491,6.574-53.358,6.767
			c-117.189,1.211-157.681-96.602-194.753-122.515C55.643,338.372-1.133,294.281,8.461,205.015
			C15.744,137.144,56.066,73.117,127.385,45.36c7.855-3.067,16.095-5.693,24.704-7.825c16.016-3.968,33.323-6.27,51.915-6.614
			c53.4-0.991,96.373,13.016,137.891,46.55c9.651,7.795,19.224,16.553,31.979,17.818c9.271,0.919,18.165-2.194,8.69-11.438
			c-11.136-10.866,2.572-31.309,31.164-16.113c47.753,25.38,66.299,77.937,74.297,131.097
			C497.843,264.085,490.16,344.714,453.463,402.451z"/>
		<path style="opacity:0.7;fill:#FFFFFF;" d="M453.463,402.451c-1.772,2.788-3.611,5.523-5.527,8.191
			c-25.513,35.523-67.063,59.216-107.109,69.393c-17.544,4.466-35.491,6.574-53.358,6.767
			c-117.189,1.211-157.681-96.602-194.753-122.515C55.643,338.372-1.133,294.281,8.461,205.015
			C15.744,137.144,56.066,73.117,127.385,45.36c7.855-3.067,16.095-5.693,24.704-7.825c16.016-3.968,33.323-6.27,51.915-6.614
			c53.4-0.991,96.373,13.016,137.891,46.55c9.651,7.795,19.224,16.553,31.979,17.818c9.271,0.919,18.165-2.194,8.69-11.438
			c-11.136-10.866,2.572-31.309,31.164-16.113c47.753,25.38,66.299,77.937,74.297,131.097
			C497.843,264.085,490.16,344.714,453.463,402.451z"/>
	</g>
</g>
<g id="Plant">
	<g>
		<g>
			<g>
				<path style="fill:#A6A6A6;stroke:#263238;stroke-linecap:round;stroke-linejoin:round;stroke-miterlimit:10;" d="M95.318,202.3
					l2.235,237.938h5.863l-2.558-175.947L99.379,202.3c0,0,2.656,0.152,2.853-6.326c0.196-6.478,3.73-32.588,3.73-32.588
					l-2.552-0.785c0,0-3.926,32.392-4.712,33.374c-0.785,0.982-2.945-1.963-3.338-5.104c-0.393-3.141,0-34.944,0-34.944
					l-3.926,0.196c0,0,0,36.711,0.785,40.637C93.005,200.686,95.318,202.3,95.318,202.3z"/>
				<path style="fill:#263238;stroke:#263238;stroke-linecap:round;stroke-linejoin:round;stroke-miterlimit:10;" d="M99.379,202.3
					c0.278-0.107,0.597-0.228,0.932-0.355c0.786-0.569,1.802-2.056,1.92-5.971c0.196-6.478,3.73-32.588,3.73-32.588l-2.552-0.785
					c0,0-3.926,32.392-4.712,33.374c-0.785,0.982-2.945-1.963-3.337-5.104c-0.393-3.141,0-34.944,0-34.944l-3.926,0.196
					c0,0,0,36.711,0.785,40.637c0.785,3.926,3.098,5.541,3.098,5.541S96.273,203.495,99.379,202.3z"/>
				<path style="fill:#263238;stroke:#263238;stroke-linecap:round;stroke-linejoin:round;stroke-miterlimit:10;" d="M98.126,155.5
					c0,0,7.46-10.405,19.435-15.313c11.975-4.908,33.57-8.049,34.355-8.049c0.785,0-20.221,6.675-26.699,9.619
					c-6.479,2.945-14.92,7.46-17.472,10.208c-2.552,2.748-14.527,21.987-14.527,21.987S93.61,166.101,98.126,155.5z"/>
				<path style="fill:#92E3A9;stroke:#263238;stroke-linecap:round;stroke-linejoin:round;stroke-miterlimit:10;" d="
					M77.663,121.621c0,0-7.46-10.405-19.435-15.313c-11.975-4.908-33.57-8.049-34.355-8.049c-0.785,0,20.22,6.675,26.699,9.619
					c6.479,2.945,14.92,7.46,17.472,10.208c2.552,2.748,14.527,21.987,14.527,21.987S82.178,132.222,77.663,121.621z"/>
				<path style="fill:#92E3A9;stroke:#263238;stroke-linecap:round;stroke-linejoin:round;stroke-miterlimit:10;" d="
					M94.153,150.872c0,0-20.417-30.232-26.11-32.785c-5.693-2.552-10.208-4.908-17.865-2.945
					c-7.656,1.963-23.558,10.601-26.503,12.172c-2.945,1.57-6.871,4.319-8.442,5.104c-1.571,0.785,20.22-12.172,32.392-13.742
					c12.171-1.571,14.331,4.319,27.484,14.527C88.264,143.412,94.153,150.872,94.153,150.872z"/>
				<path style="fill:#92E3A9;stroke:#263238;stroke-linecap:round;stroke-linejoin:round;stroke-miterlimit:10;" d="
					M94.153,150.872c0,0-13.546-21.595-22.773-23.95c-9.227-2.356-20.221,2.748-23.95,4.908c-3.73,2.16-9.227,14.331-10.405,19.043
					c-1.178,4.711-1.963,8.245-1.963,8.245s11.779-19.239,16.49-22.184c4.712-2.945,11.975-7.46,14.135-7.853
					C67.847,128.688,89.442,141.841,94.153,150.872z"/>
				<path style="fill:#92E3A9;stroke:#263238;stroke-linecap:round;stroke-linejoin:round;stroke-miterlimit:10;" d="
					M88.657,139.682c0,0-26.306-17.668-40.048-17.472c-13.742,0.196-30.821,5.3-35.337,6.086
					c-4.515,0.785-9.031,50.552-9.031,50.552s19.435-45.055,25.913-44.859c6.479,0.196,27.681-5.889,34.748-3.534
					C71.97,132.811,88.657,139.682,88.657,139.682z"/>
				<path style="fill:#92E3A9;stroke:#263238;stroke-linecap:round;stroke-linejoin:round;stroke-miterlimit:10;" d="
					M93.761,157.743c0,0-8.442-15.902-15.509-19.435c-7.067-3.534-14.135,2.748-25.325,7.067
					c-11.19,4.319-19.631,7.264-19.631,7.264s18.454,0.981,25.521-1.571c7.067-2.552,18.257-7.46,20.809-7.067
					C82.178,144.393,93.761,157.743,93.761,157.743z"/>
				<path style="fill:#263238;stroke:#263238;stroke-linecap:round;stroke-linejoin:round;stroke-miterlimit:10;" d="
					M99.875,162.993c0,0-7.46-40.244-7.46-54.968c0-14.724,0.196-21.006,0.196-21.006s4.908,19.239,5.497,21.595
					c0.589,2.356,0.589,6.282,0.589,6.282s3.534-20.809,8.049-25.914c4.515-5.104,10.208-7.656,10.208-7.656
					s-5.104,9.619-6.086,12.368c-0.982,2.748,4.123-3.73,9.619-5.301c5.497-1.57,19.043-4.515,19.043-4.515
					s-18.061,7.264-20.22,9.619c-2.16,2.356-7.46,10.994-7.853,11.975c-0.393,0.982-6.871,12.172-8.638,18.65
					C101.053,130.601,99.875,162.993,99.875,162.993z"/>
				<path style="fill:#92E3A9;stroke:#263238;stroke-linecap:round;stroke-linejoin:round;stroke-miterlimit:10;" d="
					M104.391,114.111l15.313-10.208c0,0,18.846-2.945,21.987-1.963c3.141,0.982,7.46,3.926,7.46,3.926s-12.171-1.178-17.472,1.374
					c-5.3,2.552-16.883,7.067-23.754,16.294c-6.871,9.227-9.423,19.435-10.208,22.772c-0.785,3.337-2.356,9.619-2.356,9.619
					s-3.534-17.079-2.16-23.95C94.575,125.104,104.391,114.111,104.391,114.111z"/>
				<path style="fill:#92E3A9;stroke:#263238;stroke-linecap:round;stroke-linejoin:round;stroke-miterlimit:10;" d="
					M85.152,103.117c0,0,9.031,12.172,10.405,16.098c1.374,3.926,3.534-9.816,13.153-18.257
					c9.619-8.442,40.637-13.546,40.637-13.546s-37.692,18.257-43.385,25.521c-5.693,7.264-11.19,19.632-11.19,20.22
					c0,0.589,0,7.264,0,7.264L85.152,103.117z"/>
				<path style="fill:#263238;stroke:#263238;stroke-linecap:round;stroke-linejoin:round;stroke-miterlimit:10;" d="
					M91.647,128.655c0,0-12.564-21.595-19.043-29.055c-6.478-7.46-27.877-24.147-27.877-24.147s8.834,10.994,20.22,26.503
					c11.386,15.509,29.447,38.281,29.447,38.281L91.647,128.655z"/>
				<path style="fill:#92E3A9;stroke:#263238;stroke-linecap:round;stroke-linejoin:round;stroke-miterlimit:10;" d="
					M89.864,170.846c0,0-20.417-16.687-31.214-12.564c-10.797,4.123-23.165,17.276-23.165,17.276l-2.749,14.92
					c0,0,14.527-21.006,20.809-23.951c6.282-2.945,15.116-4.122,19.435-3.141c4.319,0.982,17.079,11.779,17.668,13.153
					C91.238,177.913,89.864,170.846,89.864,170.846z"/>
				<path style="fill:#92E3A9;stroke:#263238;stroke-linecap:round;stroke-linejoin:round;stroke-miterlimit:10;" d="
					M84.563,121.374c0,0-3.926-3.534-6.478-17.668c-2.552-14.135,0.392-26.895,0.392-26.895s1.374,8.441,4.515,18.257
					c3.141,9.816,3.141,13.35,7.853,27.877c4.712,14.527,5.3,40.637,5.104,41.226C95.753,164.76,84.563,121.374,84.563,121.374z"/>
				<path style="fill:#263238;stroke:#263238;stroke-linecap:round;stroke-linejoin:round;stroke-miterlimit:10;" d="
					M116.758,125.497c0,0,6.086-7.853,13.938-10.208c7.853-2.356,15.902-2.16,15.902-2.16s-11.779-3.337-19.632-1.767
					c-7.853,1.571-13.938,10.797-16.687,19.435c-2.748,8.638-2.748,28.858-2.748,28.858S111.851,133.153,116.758,125.497z"/>
				<path style="fill:#92E3A9;stroke:#263238;stroke-linecap:round;stroke-linejoin:round;stroke-miterlimit:10;" d="
					M87.229,133.106c0,0,0.424-8.266-6.146-17.804c-6.57-9.538-19.923-14.837-29.249-18.864s-14.837-5.723-14.837-5.723
					s20.983,16.532,26.494,18.864c5.511,2.331,9.538,5.511,13.353,9.962c3.815,4.451,10.597,20.771,10.597,21.831
					C87.441,142.432,87.229,133.106,87.229,133.106z"/>
				<path style="fill:#92E3A9;stroke:#263238;stroke-linecap:round;stroke-linejoin:round;stroke-miterlimit:10;" d="
					M110.869,144.932c0,0,7.46-10.405,19.435-15.313c11.975-4.908,33.57-8.049,34.355-8.049c0.785,0-20.22,6.675-26.699,9.619
					c-6.478,2.945-14.92,7.46-17.472,10.209c-2.552,2.748-14.527,21.987-14.527,21.987S106.354,155.533,110.869,144.932z"/>
				<path style="fill:#92E3A9;stroke:#263238;stroke-linecap:round;stroke-linejoin:round;stroke-miterlimit:10;" d="
					M94.379,174.183c0,0,20.417-30.233,26.11-32.785c5.693-2.552,10.208-4.908,17.865-2.945
					c7.656,1.963,23.558,10.601,26.503,12.172c2.945,1.57,6.871,4.319,8.441,5.104c1.57,0.785-20.221-12.171-32.392-13.742
					c-12.171-1.571-14.331,4.319-27.484,14.527C100.268,166.723,94.379,174.183,94.379,174.183z"/>
				<path style="fill:#263238;stroke:#263238;stroke-linecap:round;stroke-linejoin:round;stroke-miterlimit:10;" d="
					M94.379,174.183c0,0,13.546-21.595,22.772-23.951c9.227-2.356,20.22,2.749,23.95,4.908c3.73,2.159,9.227,14.331,10.405,19.043
					c1.178,4.712,1.963,8.245,1.963,8.245s-11.779-19.239-16.49-22.184c-4.712-2.945-11.975-7.46-14.135-7.852
					C120.685,151.999,99.09,165.152,94.379,174.183z"/>
				<path style="fill:#92E3A9;stroke:#263238;stroke-linecap:round;stroke-linejoin:round;stroke-miterlimit:10;" d="
					M99.875,162.993c0,0,26.306-17.668,40.048-17.472c13.742,0.196,30.821,5.3,35.337,6.086c4.515,0.785,9.03-0.393,9.03-0.393
					s-19.435,5.89-25.914,6.086c-6.478,0.197-27.68-5.889-34.748-3.534C116.562,156.122,99.875,162.993,99.875,162.993z"/>
				<path style="fill:#92E3A9;stroke:#263238;stroke-linecap:round;stroke-linejoin:round;stroke-miterlimit:10;" d="
					M106.943,155.14c0,0-4.515-13.742,0.196-23.754c4.712-10.012,10.797-23.754,10.797-23.754s2.16,17.472-1.571,29.251
					C112.636,148.662,106.943,155.14,106.943,155.14z"/>
				<path style="fill:#92E3A9;stroke:#263238;stroke-linecap:round;stroke-linejoin:round;stroke-miterlimit:10;" d="
					M95.557,165.152c0,0,0-17.079-11.779-25.128s-24.932-10.601-29.644-8.049c-4.711,2.552-18.846,10.405-22.969,15.705
					c-4.123,5.301-7.46,9.423-7.46,9.423s20.809-13.742,27.288-18.454c6.478-4.712,9.619-5.889,11.975-5.3
					c2.356,0.589,15.902,6.871,21.202,10.994C89.471,148.466,95.557,165.152,95.557,165.152z"/>
				<path style="fill:#263238;stroke:#263238;stroke-linecap:round;stroke-linejoin:round;stroke-miterlimit:10;" d="
					M95.949,167.901c-0.196-0.589,0.392-5.104-7.656-5.693c-8.049-0.589-14.135,2.945-15.509,5.889
					c-1.374,2.945,0,10.797,0.196,11.583c0.196,0.785,1.178-10.405,10.601-12.564C93.005,164.956,95.949,167.901,95.949,167.901z"/>
				<path style="fill:#92E3A9;stroke:#263238;stroke-linecap:round;stroke-linejoin:round;stroke-miterlimit:10;" d="
					M92.808,175.164c0,0-2.552-5.497-7.656-11.386c-5.104-5.89-16.098-11.386-21.398-8.049c-5.301,3.337-11.386,17.276-13.35,21.202
					c-1.963,3.926-6.478,15.902-6.871,16.491c-0.393,0.589,11.583-10.601,16.687-17.276c5.104-6.675,8.638-15.902,11.583-16.687
					c2.945-0.785,9.03,5.104,9.03,5.104l14.527,21.006L92.808,175.164z"/>
				<path style="fill:#92E3A9;stroke:#263238;stroke-linecap:round;stroke-linejoin:round;stroke-miterlimit:10;" d="
					M93.593,160.833c0,0-2.552-11.779-11.386-14.92c-8.834-3.141-19.435-4.319-23.558-1.963
					c-4.123,2.356-22.184,19.042-22.184,19.042l-2.356,6.086c0,0,26.503-19.435,32.588-21.398c6.086-1.963,6.086-1.963,12.564,1.963
					C85.741,153.57,93.593,160.833,93.593,160.833z"/>
				<path style="fill:#92E3A9;stroke:#263238;stroke-linecap:round;stroke-linejoin:round;stroke-miterlimit:10;" d="
					M92.023,160.833c0,0-25.717-15.509-31.214-17.472c-5.497-1.963-17.865,2.945-21.398,7.46
					c-3.534,4.515-15.901,29.055-16.49,30.822c-0.589,1.767,8.245-19.043,21.595-25.128c13.35-6.086,21.987-4.908,29.84-4.122
					c7.853,0.785,17.668,13.938,17.668,13.938V160.833z"/>
				<path style="fill:#92E3A9;stroke:#263238;stroke-linecap:round;stroke-linejoin:round;stroke-miterlimit:10;" d="
					M94.771,181.054c0,0,8.442-15.902,15.509-19.435c7.067-3.534,14.135,2.748,25.325,7.067c11.19,4.319,19.632,7.264,19.632,7.264
					s-18.454,0.982-25.521-1.57c-7.067-2.552-18.257-7.46-20.809-7.067C106.354,167.704,94.771,181.054,94.771,181.054z"/>
				<path style="fill:#92E3A9;stroke:#263238;stroke-linecap:round;stroke-linejoin:round;stroke-miterlimit:10;" d="
					M95.557,165.152c0,0,4.319-12.368,6.871-28.466c2.552-16.098-1.767-44.956-5.89-53.594C92.415,74.455,80.244,60.32,80.244,60.32
					s21.595,18.846,26.306,36.515c4.712,17.669,5.497,27.092,3.534,36.711C108.121,143.165,95.557,165.152,95.557,165.152z"/>
				<g>
					<path style="fill:#92E3A9;stroke:#263238;stroke-linecap:round;stroke-linejoin:round;stroke-miterlimit:10;" d="
						M90.409,140.312c0,0-1.908-7.206-4.027-8.69c-2.119-1.484-6.359,0.212-6.359,0.212s7.418,6.57,7.418,9.538
						c0,2.967,7.536,20.834,7.536,20.834L90.409,140.312z"/>
					<path style="fill:#92E3A9;stroke:#263238;stroke-linecap:round;stroke-linejoin:round;stroke-miterlimit:10;" d="
						M86.382,131.622c0,0-3.179,2.224-5.661,4.47c-2.482,2.245-14.298,13.944-15.007,14.653c-0.709,0.709,6.145-14.889,7.681-17.844
						c1.536-2.954,4.254-5.081,5.081-4.963C79.303,128.056,86.607,129.752,86.382,131.622z"/>
				</g>
			</g>
			<g>
				<path style="fill:#A6A6A6;stroke:#263238;stroke-linecap:round;stroke-linejoin:round;stroke-miterlimit:10;" d="
					M124.246,252.251l-1.295,54.323l-1.488,133.664h4.814l1.528-187.987c0,0,2.027-1.415,2.715-4.855
					c0.688-3.441,0.688-35.61,0.688-35.61l-3.441-0.172c0,0,0.344,27.869,0,30.621c-0.344,2.752-2.236,5.333-2.924,4.473
					c-0.688-0.86-4.129-29.245-4.129-29.245l-2.236,0.688c0,0,3.096,22.88,3.269,28.557
					C121.919,252.385,124.246,252.251,124.246,252.251z"/>
				<path style="fill:#263238;stroke:#263238;stroke-linecap:round;stroke-linejoin:round;stroke-miterlimit:10;" d="
					M124.246,252.251c-0.244-0.094-0.523-0.2-0.817-0.311c-0.689-0.499-1.579-1.801-1.683-5.232
					c-0.172-5.677-3.269-28.557-3.269-28.557l2.236-0.688c0,0,3.441,28.385,4.129,29.245c0.688,0.86,2.581-1.72,2.924-4.473
					c0.344-2.753,0-30.621,0-30.621l3.441,0.172c0,0,0,32.169-0.688,35.61c-0.688,3.44-2.715,4.855-2.715,4.855
					S126.968,253.298,124.246,252.251z"/>
				<path style="fill:#263238;stroke:#263238;stroke-linecap:round;stroke-linejoin:round;stroke-miterlimit:10;" d="
					M125.345,211.24c0,0-6.537-9.117-17.031-13.418c-10.494-4.301-29.417-7.053-30.105-7.053c-0.688,0,17.719,5.849,23.396,8.43
					c5.677,2.58,13.074,6.537,15.311,8.945c2.236,2.409,12.73,19.267,12.73,19.267S129.301,220.53,125.345,211.24z"/>
				<path style="fill:#92E3A9;stroke:#263238;stroke-linecap:round;stroke-linejoin:round;stroke-miterlimit:10;" d="
					M143.276,181.552c0,0,6.537-9.118,17.031-13.418c10.494-4.301,29.417-7.053,30.105-7.053c0.688,0-17.719,5.849-23.396,8.429
					c-5.677,2.581-13.074,6.537-15.311,8.946c-2.236,2.408-12.73,19.267-12.73,19.267S139.32,190.842,143.276,181.552z"/>
				<path style="fill:#92E3A9;stroke:#263238;stroke-linecap:round;stroke-linejoin:round;stroke-miterlimit:10;" d="
					M128.826,207.185c0,0,17.891-26.493,22.88-28.729c4.989-2.236,8.946-4.301,15.655-2.58c6.709,1.72,20.643,9.29,23.224,10.666
					c2.58,1.376,6.021,3.785,7.397,4.473c1.376,0.688-17.719-10.666-28.385-12.042c-10.666-1.376-12.558,3.785-24.084,12.73
					C133.986,200.647,128.826,207.185,128.826,207.185z"/>
				<path style="fill:#92E3A9;stroke:#263238;stroke-linecap:round;stroke-linejoin:round;stroke-miterlimit:10;" d="
					M128.826,207.185c0,0,11.87-18.923,19.955-20.988c8.085-2.064,17.719,2.408,20.988,4.301s8.085,12.558,9.118,16.687
					c1.032,4.129,1.72,7.225,1.72,7.225s-10.322-16.859-14.45-19.439c-4.129-2.58-10.494-6.537-12.386-6.881
					C151.878,187.745,132.954,199.271,128.826,207.185z"/>
				<path style="fill:#92E3A9;stroke:#263238;stroke-linecap:round;stroke-linejoin:round;stroke-miterlimit:10;" d="
					M133.642,197.379c0,0,23.052-15.483,35.094-15.311c12.042,0.172,27.009,4.645,30.965,5.333c3.957,0.688,7.913-0.344,7.913-0.344
					s-17.031,5.161-22.708,5.333c-5.677,0.172-24.256-5.161-30.449-3.096C148.265,191.358,133.642,197.379,133.642,197.379z"/>
				<path style="fill:#92E3A9;stroke:#263238;stroke-linecap:round;stroke-linejoin:round;stroke-miterlimit:10;" d="
					M129.17,213.206c0,0,7.397-13.935,13.59-17.031c6.193-3.097,12.386,2.408,22.192,6.193c9.806,3.785,17.203,6.365,17.203,6.365
					s-16.171,0.86-22.364-1.376c-6.193-2.236-15.999-6.537-18.235-6.193C139.32,201.508,129.17,213.206,129.17,213.206z"/>
				<path style="fill:#263238;stroke:#263238;stroke-linecap:round;stroke-linejoin:round;stroke-miterlimit:10;" d="
					M123.811,217.807c0,0,6.537-35.266,6.537-48.168c0-12.902-0.172-18.407-0.172-18.407s-4.301,16.859-4.817,18.923
					c-0.516,2.064-0.516,5.505-0.516,5.505s-3.097-18.235-7.053-22.708c-3.957-4.473-8.945-6.709-8.945-6.709
					s4.473,8.429,5.333,10.838c0.86,2.408-3.612-3.269-8.429-4.645c-4.817-1.376-16.687-3.957-16.687-3.957
					s15.827,6.365,17.719,8.429c1.892,2.064,6.537,9.634,6.881,10.494c0.344,0.86,6.021,10.666,7.569,16.343
					C122.779,189.422,123.811,217.807,123.811,217.807z"/>
				<path style="fill:#92E3A9;stroke:#263238;stroke-linecap:round;stroke-linejoin:round;stroke-miterlimit:10;" d="
					M119.855,174.971l-13.418-8.946c0,0-16.515-2.58-19.267-1.72c-2.752,0.86-6.537,3.441-6.537,3.441s10.666-1.032,15.311,1.204
					c4.645,2.236,14.795,6.193,20.816,14.279c6.021,8.085,8.257,17.031,8.945,19.955c0.688,2.925,2.064,8.429,2.064,8.429
					s3.097-14.967,1.892-20.988C128.456,184.605,119.855,174.971,119.855,174.971z"/>
				<path style="fill:#92E3A9;stroke:#263238;stroke-linecap:round;stroke-linejoin:round;stroke-miterlimit:10;" d="
					M136.714,165.337c0,0-7.913,10.666-9.118,14.107c-1.204,3.441-3.097-8.602-11.526-15.999c-8.429-7.397-35.61-11.87-35.61-11.87
					s33.03,15.999,38.019,22.364c4.989,6.365,9.806,17.203,9.806,17.719s0,6.365,0,6.365L136.714,165.337z"/>
				<path style="fill:#263238;stroke:#263238;stroke-linecap:round;stroke-linejoin:round;stroke-miterlimit:10;" d="
					M131.022,187.717c0,0,11.01-18.923,16.687-25.46c5.677-6.537,24.428-21.16,24.428-21.16s-7.741,9.634-17.719,23.224
					c-9.978,13.59-25.804,33.546-25.804,33.546L131.022,187.717z"/>
				<path style="fill:#92E3A9;stroke:#263238;stroke-linecap:round;stroke-linejoin:round;stroke-miterlimit:10;" d="
					M132.585,224.688c0,0,17.891-14.623,27.353-11.01c9.462,3.613,20.299,15.139,20.299,15.139l2.408,13.074
					c0,0-12.73-18.407-18.235-20.987c-5.505-2.581-13.246-3.613-17.031-2.753c-3.785,0.86-14.967,10.322-15.483,11.526
					C131.381,230.881,132.585,224.688,132.585,224.688z"/>
				<path style="fill:#92E3A9;stroke:#263238;stroke-linecap:round;stroke-linejoin:round;stroke-miterlimit:10;" d="
					M137.23,181.336c0,0,3.44-3.097,5.677-15.483c2.236-12.386-0.344-23.568-0.344-23.568s-1.204,7.397-3.957,15.999
					c-2.753,8.601-2.753,11.698-6.881,24.428c-4.129,12.73-4.645,35.61-4.473,36.126C127.424,219.355,137.23,181.336,137.23,181.336
					z"/>
				<path style="fill:#263238;stroke:#263238;stroke-linecap:round;stroke-linejoin:round;stroke-miterlimit:10;" d="
					M109.017,184.949c0,0-5.333-6.881-12.214-8.946c-6.881-2.064-13.934-1.892-13.934-1.892s10.322-2.925,17.203-1.548
					c6.881,1.376,12.214,9.462,14.623,17.031c2.409,7.569,2.409,25.288,2.409,25.288S113.317,191.658,109.017,184.949z"/>
				<path style="fill:#92E3A9;stroke:#263238;stroke-linecap:round;stroke-linejoin:round;stroke-miterlimit:10;" d="
					M134.893,191.617c0,0-0.372-7.243,5.386-15.601c5.758-8.358,17.459-13.001,25.631-16.53c8.172-3.529,13.001-5.015,13.001-5.015
					s-18.387,14.487-23.216,16.53c-4.829,2.043-8.358,4.829-11.701,8.729c-3.343,3.9-9.286,18.202-9.286,19.13
					C134.707,199.789,134.893,191.617,134.893,191.617z"/>
				<path style="fill:#92E3A9;stroke:#263238;stroke-linecap:round;stroke-linejoin:round;stroke-miterlimit:10;" d="
					M114.178,201.98c0,0-6.537-9.118-17.031-13.418c-10.494-4.301-29.417-7.053-30.105-7.053s17.719,5.849,23.396,8.43
					c5.677,2.58,13.074,6.537,15.311,8.945c2.236,2.409,12.73,19.267,12.73,19.267S118.134,211.269,114.178,201.98z"/>
				<path style="fill:#92E3A9;stroke:#263238;stroke-linecap:round;stroke-linejoin:round;stroke-miterlimit:10;" d="
					M128.628,227.612c0,0-17.891-26.492-22.88-28.729c-4.989-2.236-8.946-4.301-15.655-2.58c-6.709,1.72-20.644,9.29-23.224,10.666
					c-2.58,1.376-6.021,3.785-7.397,4.473c-1.376,0.688,17.719-10.666,28.385-12.042c10.666-1.376,12.558,3.785,24.084,12.73
					C123.467,221.075,128.628,227.612,128.628,227.612z"/>
				<path style="fill:#263238;stroke:#263238;stroke-linecap:round;stroke-linejoin:round;stroke-miterlimit:10;" d="
					M128.628,227.612c0,0-11.87-18.923-19.955-20.988c-8.085-2.064-17.719,2.408-20.988,4.301
					c-3.268,1.892-8.085,12.558-9.118,16.687c-1.032,4.129-1.72,7.225-1.72,7.225s10.322-16.859,14.451-19.439
					c4.129-2.58,10.494-6.537,12.386-6.881C105.576,208.173,124.499,219.699,128.628,227.612z"/>
				<path style="fill:#92E3A9;stroke:#263238;stroke-linecap:round;stroke-linejoin:round;stroke-miterlimit:10;" d="
					M123.811,217.807c0,0-23.052-15.483-35.094-15.311c-12.042,0.172-27.009,4.645-30.965,5.333
					c-3.957,0.688-7.913-0.344-7.913-0.344s17.031,5.161,22.708,5.333c5.677,0.172,24.256-5.161,30.449-3.097
					C109.189,211.786,123.811,217.807,123.811,217.807z"/>
				<path style="fill:#92E3A9;stroke:#263238;stroke-linecap:round;stroke-linejoin:round;stroke-miterlimit:10;" d="
					M117.618,210.925c0,0,3.957-12.042-0.172-20.815c-4.129-8.774-9.462-20.816-9.462-20.816s-1.892,15.311,1.376,25.632
					C112.63,205.248,117.618,210.925,117.618,210.925z"/>
				<path style="fill:#92E3A9;stroke:#263238;stroke-linecap:round;stroke-linejoin:round;stroke-miterlimit:10;" d="
					M127.596,219.699c0,0,0-14.967,10.322-22.02c10.322-7.053,21.848-9.29,25.977-7.053c4.129,2.236,16.515,9.118,20.127,13.763
					c3.613,4.645,6.537,8.257,6.537,8.257s-18.235-12.042-23.912-16.171c-5.677-4.129-8.43-5.161-10.494-4.645
					c-2.064,0.516-13.934,6.021-18.579,9.634C132.929,205.076,127.596,219.699,127.596,219.699z"/>
				<path style="fill:#263238;stroke:#263238;stroke-linecap:round;stroke-linejoin:round;stroke-miterlimit:10;" d="
					M127.252,222.107c0.172-0.516-0.344-4.473,6.709-4.989c7.053-0.516,12.386,2.581,13.59,5.161c1.204,2.58,0,9.462-0.172,10.15
					c-0.172,0.688-1.032-9.118-9.29-11.01C129.832,219.527,127.252,222.107,127.252,222.107z"/>
				<path style="fill:#92E3A9;stroke:#263238;stroke-linecap:round;stroke-linejoin:round;stroke-miterlimit:10;" d="
					M130.004,228.472c0,0,2.236-4.817,6.709-9.978c4.473-5.161,14.106-9.978,18.751-7.053c4.645,2.924,9.978,15.139,11.698,18.579
					c1.72,3.44,5.677,13.934,6.021,14.45c0.344,0.516-10.15-9.29-14.623-15.139c-4.473-5.849-7.569-13.934-10.15-14.622
					c-2.58-0.688-7.913,4.473-7.913,4.473l-12.73,18.407L130.004,228.472z"/>
				<path style="fill:#92E3A9;stroke:#263238;stroke-linecap:round;stroke-linejoin:round;stroke-miterlimit:10;" d="
					M129.316,215.914c0,0,2.236-10.322,9.978-13.074c7.741-2.752,17.031-3.785,20.643-1.72c3.613,2.064,19.439,16.687,19.439,16.687
					l2.064,5.333c0,0-23.224-17.031-28.557-18.751c-5.333-1.72-5.333-1.72-11.01,1.72
					C136.197,209.549,129.316,215.914,129.316,215.914z"/>
				<path style="fill:#92E3A9;stroke:#263238;stroke-linecap:round;stroke-linejoin:round;stroke-miterlimit:10;" d="
					M130.692,215.914c0,0,22.536-13.59,27.353-15.311c4.817-1.72,15.655,2.581,18.751,6.537
					c3.097,3.957,13.934,25.461,14.451,27.009c0.516,1.548-7.225-16.687-18.923-22.02c-11.698-5.333-19.267-4.301-26.148-3.613
					c-6.881,0.688-15.483,12.214-15.483,12.214V215.914z"/>
				<path style="fill:#92E3A9;stroke:#263238;stroke-linecap:round;stroke-linejoin:round;stroke-miterlimit:10;" d="
					M128.284,233.633c0,0-7.397-13.934-13.59-17.031c-6.193-3.096-12.386,2.408-22.192,6.193
					c-9.806,3.785-17.203,6.365-17.203,6.365s16.171,0.86,22.364-1.376c6.193-2.236,15.999-6.537,18.235-6.193
					C118.134,221.935,128.284,233.633,128.284,233.633z"/>
				<path style="fill:#92E3A9;stroke:#263238;stroke-linecap:round;stroke-linejoin:round;stroke-miterlimit:10;" d="
					M127.596,219.699c0,0-3.785-10.838-6.021-24.944c-2.236-14.106,1.548-39.395,5.161-46.964
					c3.613-7.569,14.278-19.955,14.278-19.955s-18.923,16.515-23.052,31.997c-4.129,15.483-4.817,23.74-3.097,32.17
					C116.586,200.432,127.596,219.699,127.596,219.699z"/>
				<g>
					<path style="fill:#92E3A9;stroke:#263238;stroke-linecap:round;stroke-linejoin:round;stroke-miterlimit:10;" d="
						M132.107,197.932c0,0,1.671-6.315,3.529-7.615c1.857-1.3,5.572,0.186,5.572,0.186s-6.501,5.757-6.501,8.358
						c0,2.6-6.604,18.257-6.604,18.257L132.107,197.932z"/>
					<path style="fill:#92E3A9;stroke:#263238;stroke-linecap:round;stroke-linejoin:round;stroke-miterlimit:10;" d="
						M135.636,190.316c0,0,2.786,1.949,4.961,3.917c2.174,1.968,12.529,12.219,13.151,12.84c0.621,0.621-5.385-13.047-6.731-15.636
						c-1.346-2.589-3.728-4.453-4.453-4.349C141.839,187.192,135.439,188.678,135.636,190.316z"/>
				</g>
			</g>
			<g>
				<path style="fill:#263238;stroke:#263238;stroke-linecap:round;stroke-linejoin:round;stroke-miterlimit:10;" d="
					M130.368,281.408c0,0,15.845-5.781,25.48-8.993c9.635-3.212,16.915,4.711,16.915,4.711s-11.991,1.713-16.273,1.927
					c-4.282,0.214-10.706,0.428-14.56,1.927c-3.854,1.499,7.708,1.285,11.562,5.139c3.854,3.854,11.991,13.703,13.275,16.701
					c1.285,2.998-13.061-14.132-23.125-16.701c-10.064-2.569-17.986,2.783-17.986,2.783L130.368,281.408z"/>
				<path style="fill:#A6A6A6;stroke:#263238;stroke-linecap:round;stroke-linejoin:round;stroke-miterlimit:10;" d="
					M113.125,440.238h5.174c0.594-25.038,1.149-117.312,1.149-119.004c0-3.64,0.214-16.701,0.214-16.701l-4.925,0.428
					c0,0,1.499,7.066,0,26.765C114.174,339.142,113.609,423.393,113.125,440.238z"/>
				<path style="fill:#92E3A9;stroke:#263238;stroke-linecap:round;stroke-linejoin:round;stroke-miterlimit:10;" d="
					M118.806,284.192c-0.399-0.871-6.423-13.704-9.635-15.845c-3.212-2.141-11.348-5.139-14.988-5.139
					c-3.64,0-13.061,1.071-13.061,1.071s16.701,3.854,21.412,7.494c4.711,3.64,12.847,11.991,13.061,13.489
					c0.214,1.499,1.927,4.925,1.927,4.925S121.161,289.331,118.806,284.192z"/>
				<path style="fill:#263238;stroke:#263238;stroke-linecap:round;stroke-linejoin:round;stroke-miterlimit:10;" d="
					M114.095,292.542c0,0-12.847-1.499-17.558,1.927c-4.711,3.426-13.061,13.061-13.061,18.2c0,5.139,0.428,16.915,0.428,15.845
					c0-1.071,2.355-17.772,7.708-22.911c5.353-5.139,7.708-8.137,14.774-8.993c7.066-0.856,7.066-0.856,7.066-0.856l7.28,3.854
					L114.095,292.542z"/>
				<path style="fill:#92E3A9;stroke:#263238;stroke-linecap:round;stroke-linejoin:round;stroke-miterlimit:10;" d="M123.93,289.43
					c0,0,2.569-2.141,11.776-3.426c9.207-1.285,11.777-2.141,17.558-1.07c5.781,1.07,11.991,3.426,11.991,3.426
					s-18.414-0.428-20.127-0.428c-1.713,0,11.134,8.351,13.49,10.92c2.355,2.57,4.496,7.922,4.496,7.922
					S144.699,293.498,141.487,292c-3.212-1.499-4.496-2.355-4.496-2.355s-5.139-0.856-7.28-0.214
					c-2.141,0.642-3.854,1.285-4.496,1.499c-0.642,0.214-2.998,0.856-2.998,0.856L123.93,289.43z"/>
				<path style="fill:#92E3A9;stroke:#263238;stroke-linecap:round;stroke-linejoin:round;stroke-miterlimit:10;" d="
					M121.161,282.479c0,0,1.071-12.419,7.066-17.986c5.995-5.567,26.551-16.273,26.551-16.273l12.633-6.21
					c0,0-3.64,8.137-11.348,11.348c-7.708,3.212-10.278,0.857-13.918,4.711c-3.64,3.854-9.421,11.776-10.492,15.417
					c-1.07,3.64-8.136,13.704-8.565,16.059C122.66,291.9,121.161,282.479,121.161,282.479z"/>
				<path style="fill:#92E3A9;stroke:#263238;stroke-linecap:round;stroke-linejoin:round;stroke-miterlimit:10;" d="
					M122.018,285.905c0,0,1.285-19.271-0.856-24.195c-2.141-4.925-8.779-16.273-10.278-18.842c-1.499-2.569-3.426-4.711-3.426-4.711
					s5.353,16.915,6.852,25.694c1.499,8.779,1.713,11.563,2.141,15.202c0.428,3.64,0.857,6.852,0.857,6.852H122.018z"/>
				<path style="fill:#92E3A9;stroke:#263238;stroke-linecap:round;stroke-linejoin:round;stroke-miterlimit:10;" d="
					M119.234,292.971c0,0,2.783-7.708,7.066-14.56c4.283-6.852,10.492-8.35,11.562-8.35c1.071,0,4.711,0,4.711,0
					s-8.351,4.068-9.421,7.922c-1.071,3.854-3.426,11.777-5.139,13.49c-1.713,1.713-5.995,10.706-7.066,12.847
					c-1.071,2.141-3.854,3.212-3.854,3.212S113.239,301.75,119.234,292.971z"/>
				<path style="fill:#92E3A9;stroke:#263238;stroke-linecap:round;stroke-linejoin:round;stroke-miterlimit:10;" d="
					M122.66,293.613l-5.567,13.918l1.713,1.499c0,0,2.569-2.998,4.497-5.781c1.927-2.784,3.426-4.925,3.426-6.209
					S122.66,293.613,122.66,293.613z"/>
				<path style="fill:#92E3A9;stroke:#263238;stroke-linecap:round;stroke-linejoin:round;stroke-miterlimit:10;" d="
					M120.439,305.354c0,0-8.137-17.772-10.706-21.626c-2.569-3.854-5.353-7.066-10.92-8.565c-5.567-1.499-14.988-4.282-23.339-2.784
					c-8.351,1.499-22.697,3.426-22.697,3.426s10.278,4.711,22.697,3.854c12.419-0.856,23.339-0.214,23.339-0.214
					s2.569,1.07,4.496,7.28c1.927,6.209,5.995,11.776,8.565,14.132c2.569,2.355,6.852,8.137,6.852,8.137L120.439,305.354z"/>
				<path style="fill:#92E3A9;stroke:#263238;stroke-linecap:round;stroke-linejoin:round;stroke-miterlimit:10;" d="
					M122.018,285.905c0,0-8.993-3.64-11.134-0.428c-2.141,3.212-5.567,19.913-5.567,19.913s-1.713,8.779-2.141,9.635
					c-0.428,0.857,11.348-8.137,14.132-15.845C120.09,291.472,122.018,285.905,122.018,285.905z"/>
				<path style="fill:#92E3A9;stroke:#263238;stroke-linecap:round;stroke-linejoin:round;stroke-miterlimit:10;" d="
					M130.583,291.472c0,0-7.923,0.214-7.923,2.141c0,1.927,1.07,5.353,0.642,9.635c-0.428,4.282-0.857,8.136-0.857,8.136
					s8.565-3.64,8.993-8.565C131.867,297.895,130.583,291.472,130.583,291.472z"/>
				<path style="fill:#263238;stroke:#263238;stroke-linecap:round;stroke-linejoin:round;stroke-miterlimit:10;" d="
					M134.398,291.456c0,0,8.136,5.567,10.92,10.706c2.784,5.139,4.925,15.845,4.925,15.845s-5.567-10.706-9.849-16.487
					c-4.282-5.781-10.706-10.492-11.991-8.993S131.4,290.171,134.398,291.456z"/>
			</g>
		</g>
	</g>
</g>
<g id="Picture">
	<g>
		
			<rect x="333.496" y="37.832" style="fill:none;stroke:#263238;stroke-linecap:round;stroke-miterlimit:10;" width="141.811" height="188.342"/>
		
			<rect x="338.789" y="44.863" style="fill:none;stroke:#263238;stroke-linecap:round;stroke-miterlimit:10;" width="131.223" height="174.281"/>
		
			<rect x="372.456" y="89.576" style="fill:none;stroke:#263238;stroke-linecap:round;stroke-miterlimit:10;" width="63.891" height="84.855"/>
	</g>
</g>
<g id="Character_00000114774306216726122430000014063533170871298214_">
	<g>
		<path style="fill:#92E3A9;stroke:#263238;stroke-linecap:round;stroke-miterlimit:10;" d="M202.036,283.277
			c0,0-51.109,12.72-52.926,17.036c-1.817,4.316-3.18,52.245-5.225,55.198c-2.044,2.953-9.313,4.543-9.313,9.086
			s6.133,21.807,6.133,21.807s26.35,46.112,29.075,46.112c2.726,0,7.496-2.726,7.496-2.726v5.452h165.366l0.681-13.629
			c0,0,14.992-36.798,16.582-39.979c1.59-3.18,8.632-11.13,6.133-17.264c-2.499-6.133-6.815-10.222-7.496-15.673
			c-0.682-5.452-17.263-51.336-21.125-55.425c-3.862-4.089-33.618-6.814-44.295-8.177c-10.676-1.363-23.169-2.953-23.169-2.953
			L202.036,283.277z"/>
		<path style="fill:#263238;stroke:#263238;stroke-linecap:round;stroke-miterlimit:10;" d="M295.128,358.689
			c0,0-21.261,46.151-38.348,68.829c-2.188,2.903-4.142,5.461-5.892,7.723h91.755l0.681-13.629c0,0,0.257-0.63,0.7-1.715
			L295.128,358.689z"/>
		<g>
			<path style="fill:#FFFFFF;stroke:#263238;stroke-linecap:round;stroke-miterlimit:10;" d="M219.857,281.542
				c0,0,13.28,39.638,29.327,41.693s28.497-32.004,28.774-39.344c0.277-7.34,1.66-11.745,1.66-11.745s-13.834,16.442-29.604,16.442
				C234.244,288.589,219.857,281.542,219.857,281.542z"/>
			<path style="fill:#FFFFFF;stroke:#263238;stroke-linecap:round;stroke-miterlimit:10;" d="M225.206,286.684
				c0,0,10.903,30.665,24.078,32.256c13.175,1.59,23.397-24.76,23.624-30.438c0.227-5.679,1.363-9.086,1.363-9.086
				s-11.358,12.721-24.305,12.721C237.018,292.136,225.206,286.684,225.206,286.684z"/>
			<path style="fill:#263238;stroke:#263238;stroke-linecap:round;stroke-miterlimit:10;" d="M225.206,286.684
				c0,0,6.372,17.901,15.256,27.056c9.558-8.857,28.811-29.1,28.811-29.1l-0.334-0.346c-4.535,3.588-11.486,7.841-18.974,7.841
				C237.018,292.136,225.206,286.684,225.206,286.684z"/>
			<path style="fill:none;stroke:#263238;stroke-linecap:round;stroke-miterlimit:10;" d="M222.48,294.18
				c0,0,0.454,28.621,16.355,43.84"/>
			<path style="fill:none;stroke:#263238;stroke-linecap:round;stroke-miterlimit:10;" d="M233.61,313.261
				c0,0,9.54,18.626,19.535,20.671"/>
			<path style="fill:none;stroke:#263238;stroke-linecap:round;stroke-miterlimit:10;" d="M260.621,403.239
				c-1.493,1.839-3.006,3.587-4.523,5.198"/>
			<path style="fill:none;stroke:#263238;stroke-linecap:round;stroke-miterlimit:10;" d="M285.173,364.143
				c0,0-10.041,20.081-21.979,35.814"/>
			<path style="fill:none;stroke:#263238;stroke-linecap:round;stroke-miterlimit:10;" d="M264.73,387.539
				c0,0-20.671,23.397-28.848,29.53"/>
			<path style="fill:none;stroke:#263238;stroke-linecap:round;stroke-miterlimit:10;" d="M274.725,299.177
				c0,0-0.454,17.718-4.997,25.214"/>
		</g>
		<g>
			<path style="fill:#FFFFFF;stroke:#263238;stroke-linecap:round;stroke-miterlimit:10;" d="M192.432,234.581
				c0,0,13.049,30.993,20.227,42.084c7.177,11.092,31.645,24.468,41.432,21.205c9.787-3.262,19.9-12.397,26.751-27.078
				c6.851-14.681,6.199-43.063,5.546-51.219c-0.652-8.156-39.475-28.709-48.283-29.361c-8.808-0.652-31.971,10.113-36.538,15.659
				C196.999,211.419,192.432,234.581,192.432,234.581z"/>
			<path style="fill:#263238;stroke:#263238;stroke-linecap:round;stroke-miterlimit:10;" d="M197.978,169.334
				c0,0-8.808-3.589-16.964,6.199s-8.482,12.723-5.22,12.723c3.262,0,7.503-1.305,7.503-1.305s-14.028,8.156-13.376,15.333
				c0.652,7.177,2.284,7.503,5.22,4.893c2.936-2.61,0,4.241,1.631,4.567c1.631,0.326,3.262-2.284,3.262-2.284
				s5.22,18.269,10.113,24.141c4.894,5.872,3.915,6.198,8.156,5.546c4.241-0.652,12.261,5.534,13.695-3.034
				c2.897-17.314,0.573-9.6,7.263-3.418c4.191,3.873,8.077-16.058,10.361-21.278c2.284-5.22,3.915-11.418,3.915-11.418
				s0,13.702,4.893,15.659c4.894,1.957,5.872-4.241,5.872-4.241s10.113,10.439,21.858,12.071
				c11.745,1.631,12.071-7.177,12.071-7.177l4.894,3.589c0,0,2.936,6.199,3.915,6.851c0.979,0.652,9.461-3.589,12.397-5.872
				c2.936-2.284,4.893-4.894,0.979-10.113c-3.915-5.22-4.894-7.177-4.894-7.177s5.22,4.567,6.199,1.957
				c0.979-2.61,2.61-8.156-1.957-12.071c-4.567-3.915-13.702-5.872-13.702-5.872s4.567-0.979,4.241-10.113
				c-0.326-9.135-2.284-11.418-5.22-8.156c-2.936,3.262-8.156,7.504-9.461,8.156c-1.305,0.652,8.156-13.376,1.957-19.9
				c-6.198-6.525-8.156-1.631-11.744-0.326c-3.589,1.305-9.461-3.262-20.553-5.872c-11.092-2.61-30.014-3.262-37.517,5.22
				c-7.503,8.482-7.503,8.482-7.503,8.482s-0.652-7.177-2.284-3.589C196.346,165.093,197.978,169.334,197.978,169.334z"/>
			<path style="fill:none;stroke:#263238;stroke-linecap:round;stroke-miterlimit:10;" d="M242.346,263.29
				c0,0,7.177,5.546,11.745-2.936"/>
			<g>
				<g>
					<path style="fill:#263238;" d="M218.126,267.943c-2.848,0-5.277-0.415-6.7-1.363c-3.605-2.403-8.917-11.663-8.612-15.013
						c0.104-1.154,0.323-3.554,35.196-12.448l0.828-0.211l0.604,0.604c0.184,0.185,1.802,1.878,1.802,4.468l0,0.195
						c0.021,7.853-1.22,17.78-7.247,20.482C229.607,266.624,223.202,267.943,218.126,267.943z M205.821,252.213
						c0.339,2.292,4.257,9.863,7.269,11.871c2.79,1.86,13.274,0.707,19.679-2.165c3.505-1.571,5.5-8.036,5.475-17.736l0-0.203
						c0-0.692-0.237-1.285-0.472-1.703C223.562,245.93,208.359,250.468,205.821,252.213z"/>
				</g>
				<g>
					<path style="fill:#263238;" d="M262.339,257.755c-6.317,0-11.955-7.77-15.622-14.417l-0.095-0.172
						c-1.257-2.266-0.664-4.531-0.592-4.781l0.235-0.821l0.826-0.217c34.809-9.146,36.163-7.154,36.815-6.196
						c1.892,2.781,1.741,13.456-0.245,17.306c-2.18,4.228-13.187,8.631-20.668,9.271
						C262.773,257.746,262.555,257.755,262.339,257.755z M248.831,239.991c-0.003,0.479,0.078,1.113,0.414,1.718l0.099,0.18
						c4.686,8.493,9.585,13.185,13.392,12.849c6.995-0.598,16.721-4.677,18.258-7.657c1.659-3.217,1.411-11.739,0.595-13.907
						C278.523,232.886,263.028,236.29,248.831,239.991z"/>
				</g>
				<g>
					
						<rect x="238.295" y="238.184" transform="matrix(0.9814 -0.1917 0.1917 0.9814 -41.449 51.0245)" style="fill:#263238;" width="9.262" height="3"/>
				</g>
				<g>
					<path style="fill:#263238;" d="M241.202,246.88l-2.469-1.704c1.26-1.841,5.015-4.749,10.22-2.582l-1.154,2.77
						C243.652,243.635,241.44,246.543,241.202,246.88z"/>
				</g>
			</g>
			<path style="fill:none;stroke:#263238;stroke-linecap:round;stroke-miterlimit:10;" d="M218.618,249.204
				c0,0,7.723,3.18,14.765-4.089"/>
			<path style="fill:none;stroke:#263238;stroke-linecap:round;stroke-miterlimit:10;" d="M254.962,240.345
				c0,0,9.54,3.862,16.582-4.316"/>
			<path style="fill:#263238;stroke:#263238;stroke-linecap:round;stroke-miterlimit:10;" d="M227.023,231.032
				c0,0-8.404,6.814-10.903,9.086c-2.499,2.271-7.042,4.997-3.407,5.224c3.634,0.227,16.128-7.042,19.535-10.449
				C235.655,231.486,229.976,228.988,227.023,231.032z"/>
			<path style="fill:#263238;stroke:#263238;stroke-linecap:round;stroke-miterlimit:10;" d="M246.558,223.536
				c0,0-2.271,3.862,0.227,4.997c2.499,1.136,20.216,2.726,22.942,1.817c2.726-0.909,0.681-3.407-1.363-3.862
				C266.32,226.035,248.829,221.037,246.558,223.536z"/>
			<path style="fill:#263238;stroke:#263238;stroke-linecap:round;stroke-miterlimit:10;" d="M254.054,278.62
				c0,1.443-1.068,2.612-2.385,2.612c-1.317,0-2.385-1.169-2.385-2.612c0-1.443,1.068-2.612,2.385-2.612
				C252.986,276.008,254.054,277.177,254.054,278.62z"/>
		</g>
		<g>
			<g>
				<path style="fill:#FFFFFF;stroke:#263238;stroke-linecap:round;stroke-miterlimit:10;" d="M190.003,200.64
					c0,0,3.597-4.423,5.452-1.003c1.855,3.42-4.761,14.84-4.923,15.897c-0.162,1.056,4.251,16.059,8.162,20.145
					c3.911,4.087,20.865,23.985,20.649,30.331c-0.216,6.346-2.891,16.749-2.525,17.886c0.366,1.137-24.819-4.56-24.819-4.56
					l4.063-13.109c0,0-1.496-1.527-1.716-2.209c0,0-21.187-12.567-20.96-19.863c0.09-2.906,0.716-26.943,0.612-31.003
					c-0.104-4.06,9.307-15.377,10.907-16.645C186.506,195.239,189.988,194.369,190.003,200.64z"/>
				<path style="fill:none;stroke:#263238;stroke-linecap:round;stroke-miterlimit:10;" d="M198.969,266.054
					c0,0,5.897-4.042,12.457,0.526"/>
				<path style="fill:none;stroke:#263238;stroke-linecap:round;stroke-miterlimit:10;" d="M188.072,202.249
					c0,0-5.775,12.37-6.588,14.509c-0.813,2.138,2.571,13.811,5.125,18.243"/>
				<path style="fill:none;stroke:#263238;stroke-linecap:round;stroke-miterlimit:10;" d="M173.999,213.153
					c0,0,2.321,22.534,3.647,25.486c1.326,2.951,1.545,3.631,3.343,4.553c1.798,0.922,3.124,3.873,3.124,3.873"/>
			</g>
			<path style="fill:#92E3A9;stroke:#263238;stroke-linecap:round;stroke-miterlimit:10;" d="M220.208,291.227
				c0,0,2.953-7.95,2.271-10.676c-0.681-2.726-14.992-8.405-19.762-7.269c-4.77,1.136-21.579,1.136-22.034,5.224
				c-0.454,4.089-0.227,14.083-0.454,15.446c-0.227,1.363-2.726,6.36-1.136,6.814c1.59,0.454,37.934,7.723,37.934,7.723
				s0.909-2.044,1.363-5.679S220.208,291.227,220.208,291.227z"/>
			<path style="fill:#92E3A9;stroke:#263238;stroke-linecap:round;stroke-miterlimit:10;" d="M179.094,300.767
				c0,0-5.225-0.909-7.496,5.225c-2.271,6.133-3.862,17.263-3.634,20.444c0.227,3.18-14.765,34.073-14.765,34.073
				s-16.355,16.582-14.992,25.441c1.363,8.859,7.042,31.574,12.493,37.707c5.452,6.133,12.039,12.72,18.172,12.493
				c6.133-0.227,6.36-4.316,18.399-9.54c12.039-5.224,17.945-2.044,21.125-21.806c3.18-19.762,5.906-68.145,7.723-75.641
				c1.817-7.496,4.089-9.54,3.407-14.083c-0.682-4.543-2.499-6.587-2.499-6.587L179.094,300.767z"/>
		</g>
		<g>
			<g>
				<path style="fill:#FFFFFF;stroke:#263238;stroke-linecap:round;stroke-miterlimit:10;" d="M281.312,214.223
					c0,0-4.543-2.953-5.224,0.682c-0.681,3.634,8.632,12.039,9.086,12.948c0.454,0.909,0.833,15.767-1.514,20.604
					c-2.347,4.837-11.888,27.779-9.843,33.458c2.044,5.679,7.496,14.31,7.496,15.446c0,1.136,21.125-11.358,21.125-11.358
					l-7.496-10.676c0,0,0.909-1.817,0.909-2.499c0,0,12.721-21.352,13.175-24.078c0.454-2.726-8.499-24.167-9.587-27.87
					c-1.089-3.704-12.901-11.2-14.718-11.881C282.902,208.317,279.499,208.545,281.312,214.223z"/>
				<path style="fill:none;stroke:#263238;stroke-linecap:round;stroke-miterlimit:10;" d="M292.357,276.242
					c0,0-5.094,1.698-8.829,4.415"/>
				<path style="fill:none;stroke:#263238;stroke-linecap:round;stroke-miterlimit:10;" d="M283.528,215.115
					c0,0,8.829,9.509,10.188,11.207c1.358,1.698,1.698,13.244,0.679,17.999"/>
				<path style="fill:none;stroke:#263238;stroke-linecap:round;stroke-miterlimit:10;" d="M299.437,220.88
					c0,0,4.466,21.064,4.127,24.12c-0.34,3.056-0.34,3.736-1.698,5.094c-1.358,1.358-1.698,4.415-1.698,4.415"/>
			</g>
			<g>
				<path style="fill:#92E3A9;stroke:#263238;stroke-linecap:round;stroke-miterlimit:10;" d="M286.309,323.937
					c0,0-4.543,7.269-3.18,13.402c1.363,6.133,27.031,76.096,27.031,76.096s20.444,20.216,27.485,21.352
					c7.042,1.136,9.768,1.363,16.128-4.77c6.36-6.133,18.626-23.397,19.989-37.934c1.363-14.538-6.587-21.125-10.222-25.895
					c-3.634-4.77-30.665-44.522-34.3-52.245c-3.634-7.723-12.948-9.54-12.948-9.54L286.309,323.937z"/>
				<path style="fill:#92E3A9;stroke:#263238;stroke-linecap:round;stroke-miterlimit:10;" d="M304.922,279.978
					c0,0-31.924,15.601-31.242,21.734c0.681,6.133,9.222,10.868,10.585,16.092c1.363,5.224,2.272,7.496,5.452,6.36
					c3.18-1.136,23.169-16.128,24.759-17.491c1.59-1.363,3.18-2.953,1.59-5.224c-1.59-2.272-4.692-6.529-4.692-6.529
					S308.329,278.16,304.922,279.978z"/>
				<g>
					<path style="fill:none;stroke:#263238;stroke-linecap:round;stroke-miterlimit:10;" d="M316.975,310.762
						c0,0,16.355,57.242,32.71,73.824"/>
					<path style="fill:none;stroke:#263238;stroke-linecap:round;stroke-miterlimit:10;" d="M347.326,393.52
						c1.08,1.249,2.038,2.174,2.812,2.651"/>
					<path style="fill:none;stroke:#263238;stroke-linecap:round;stroke-miterlimit:10;" d="M327.651,362.78
						c0,0,9.686,17.383,16.889,27.199"/>
				</g>
			</g>
		</g>
	</g>
</g>
<g id="Book_2">
	<g>
		<path style="fill:#FFFFFF;stroke:#263238;stroke-linecap:round;stroke-miterlimit:10;" d="M330.15,435.468
			c-4.543,0.227-13.629,0.682-20.217-0.909c-6.587-1.59-32.028-13.629-46.566-14.538c-12.976-0.811-19.432,7.782-20.671,9.639
			c-1.238-1.857-7.695-10.45-20.671-9.639c-14.538,0.909-39.979,12.948-46.566,14.538c-6.587,1.59-15.673,1.136-20.216,0.909
			c-4.543-0.227-9.995-0.227-9.995-0.227v4.997h96.766h1.363h96.766v-4.997C340.144,435.241,334.693,435.241,330.15,435.468z"/>
		<polygon style="fill:#263238;stroke:#263238;stroke-linecap:round;stroke-miterlimit:10;" points="340.144,437.74 145.248,437.74 
			145.248,440.238 242.015,440.238 243.378,440.238 340.144,440.238 		"/>
		<path style="fill:none;stroke:#263238;stroke-linecap:round;stroke-miterlimit:10;" d="M241.106,435.695
			c0,0-4.543-8.859-16.809-7.496c-12.266,1.363-31.574,6.815-34.073,7.042"/>
		<path style="fill:none;stroke:#263238;stroke-linecap:round;stroke-miterlimit:10;" d="M235.2,435.695
			c0,0-3.18-2.953-10.449-2.726c-7.269,0.227-13.175,2.953-14.083,2.953"/>
		<path style="fill:none;stroke:#263238;stroke-linecap:round;stroke-miterlimit:10;" d="M189.089,433.197
			c0,0,16.582-4.543,24.305-7.496c7.723-2.953,12.493-2.953,19.535,0.454"/>
		<path style="fill:none;stroke:#263238;stroke-linecap:round;stroke-miterlimit:10;" d="M237.472,428.199
			c0,0,2.953,0.454,4.089,4.089"/>
		<path style="fill:none;stroke:#263238;stroke-linecap:round;stroke-miterlimit:10;" d="M246.785,435.014
			c0,0,4.089-4.089,15.219-2.499c11.13,1.59,15.901,1.817,15.901,1.817"/>
		<path style="fill:none;stroke:#263238;stroke-linecap:round;stroke-miterlimit:10;" d="M244.286,435.014
			c0,0,2.271-6.36,12.493-7.496c10.222-1.136,27.258,5.224,30.665,6.133"/>
		<path style="fill:none;stroke:#263238;stroke-linecap:round;stroke-miterlimit:10;" d="M268.591,425.473
			c0,0,16.355,2.953,28.394,8.859"/>
	</g>
</g>
<g id="Books_1">
	<g>
		<g>
			<path style="fill:#D4D4D4;stroke:#263238;stroke-linecap:round;stroke-miterlimit:10;" d="M54.961,440.238h84.578
				c7.599,0,13.76-6.16,13.76-13.76v-4.45c0-7.599-6.161-13.76-13.76-13.76H54.961V440.238z"/>
			<path style="fill:#FFFFFF;stroke:#263238;stroke-linecap:round;stroke-miterlimit:10;" d="M33.177,435.964h90.996
				c5.567,0,10.081-4.513,10.081-10.081v-3.26c0-5.568-4.514-10.081-10.081-10.081H33.177V435.964z"/>
			<path style="fill:#BABABA;stroke:#263238;stroke-linecap:round;stroke-miterlimit:10;" d="M122.543,412.542H29.061v-4.274h92.875
				c8.828,0,15.985,7.157,15.985,15.985c0,8.828-7.157,15.985-15.985,15.985H29.061v-4.274h93.482
				c6.468,0,11.711-5.243,11.711-11.711S129.011,412.542,122.543,412.542z"/>
			
				<line style="fill:none;stroke:#263238;stroke-linecap:round;stroke-miterlimit:10;" x1="130.739" y1="419.777" x2="105.48" y2="419.777"/>
			
				<line style="fill:none;stroke:#263238;stroke-linecap:round;stroke-miterlimit:10;" x1="125.126" y1="422.957" x2="114.274" y2="422.957"/>
			
				<line style="fill:none;stroke:#263238;stroke-linecap:round;stroke-miterlimit:10;" x1="133.171" y1="429.132" x2="109.971" y2="429.132"/>
			
				<line style="fill:none;stroke:#263238;stroke-linecap:round;stroke-miterlimit:10;" x1="107.351" y1="429.506" x2="99.493" y2="429.506"/>
			
				<line style="fill:none;stroke:#263238;stroke-linecap:round;stroke-miterlimit:10;" x1="115.771" y1="433.622" x2="103.422" y2="433.622"/>
			
				<line style="fill:none;stroke:#263238;stroke-linecap:round;stroke-miterlimit:10;" x1="134.254" y1="424.253" x2="129.055" y2="424.253"/>
			
				<line style="fill:none;stroke:#263238;stroke-linecap:round;stroke-miterlimit:10;" x1="33.447" y1="423.332" x2="45.983" y2="423.332"/>
			
				<line style="fill:none;stroke:#263238;stroke-linecap:round;stroke-miterlimit:10;" x1="40.37" y1="428.196" x2="56.273" y2="428.196"/>
			
				<line style="fill:none;stroke:#263238;stroke-linecap:round;stroke-miterlimit:10;" x1="49.163" y1="423.332" x2="59.267" y2="423.332"/>
		</g>
		<g>
			<path style="fill:#D4D4D4;stroke:#263238;stroke-linecap:round;stroke-miterlimit:10;" d="M73.634,312.852h84.578
				c7.599,0,13.76-6.16,13.76-13.76v-4.45c0-7.599-6.161-13.76-13.76-13.76H73.634V312.852z"/>
			<path style="fill:#FFFFFF;stroke:#263238;stroke-linecap:round;stroke-miterlimit:10;" d="M51.851,308.578h90.996
				c5.568,0,10.081-4.513,10.081-10.081v-3.26c0-5.568-4.513-10.081-10.081-10.081H51.851V308.578z"/>
			<path style="fill:#BABABA;stroke:#263238;stroke-linecap:round;stroke-miterlimit:10;" d="M141.216,285.156H47.734v-4.274h92.875
				c8.828,0,15.985,7.157,15.985,15.985c0,8.828-7.157,15.985-15.985,15.985H47.734v-4.274h93.482
				c6.468,0,11.711-5.243,11.711-11.711C152.927,290.399,147.684,285.156,141.216,285.156z"/>
			
				<line style="fill:none;stroke:#263238;stroke-linecap:round;stroke-miterlimit:10;" x1="149.412" y1="292.391" x2="124.154" y2="292.391"/>
			
				<line style="fill:none;stroke:#263238;stroke-linecap:round;stroke-miterlimit:10;" x1="143.799" y1="295.571" x2="132.947" y2="295.571"/>
			
				<line style="fill:none;stroke:#263238;stroke-linecap:round;stroke-miterlimit:10;" x1="151.844" y1="301.746" x2="128.644" y2="301.746"/>
			
				<line style="fill:none;stroke:#263238;stroke-linecap:round;stroke-miterlimit:10;" x1="126.024" y1="302.12" x2="118.166" y2="302.12"/>
			
				<line style="fill:none;stroke:#263238;stroke-linecap:round;stroke-miterlimit:10;" x1="134.444" y1="306.236" x2="122.095" y2="306.236"/>
			
				<line style="fill:none;stroke:#263238;stroke-linecap:round;stroke-miterlimit:10;" x1="152.927" y1="296.867" x2="147.728" y2="296.867"/>
			
				<line style="fill:none;stroke:#263238;stroke-linecap:round;stroke-miterlimit:10;" x1="52.12" y1="295.945" x2="64.656" y2="295.945"/>
			
				<line style="fill:none;stroke:#263238;stroke-linecap:round;stroke-miterlimit:10;" x1="59.043" y1="300.81" x2="74.946" y2="300.81"/>
			
				<line style="fill:none;stroke:#263238;stroke-linecap:round;stroke-miterlimit:10;" x1="67.837" y1="295.945" x2="77.94" y2="295.945"/>
		</g>
		<g>
			<path style="fill:#263238;stroke:#263238;stroke-linecap:round;stroke-miterlimit:10;" d="M54.961,408.278h84.578
				c7.599,0,13.76-6.16,13.76-13.76v-4.45c0-7.599-6.161-13.76-13.76-13.76H54.961V408.278z"/>
			<path style="fill:#FFFFFF;stroke:#263238;stroke-linecap:round;stroke-miterlimit:10;" d="M33.177,404.004h90.996
				c5.567,0,10.081-4.513,10.081-10.081v-3.26c0-5.567-4.514-10.081-10.081-10.081H33.177V404.004z"/>
			<path style="fill:#263238;stroke:#263238;stroke-linecap:round;stroke-miterlimit:10;" d="M122.543,380.582H29.061v-4.274h92.875
				c8.828,0,15.985,7.157,15.985,15.985c0,8.828-7.157,15.985-15.985,15.985H29.061v-4.274h93.482
				c6.468,0,11.711-5.243,11.711-11.711C134.254,385.825,129.011,380.582,122.543,380.582z"/>
			
				<line style="fill:none;stroke:#263238;stroke-linecap:round;stroke-miterlimit:10;" x1="130.739" y1="387.816" x2="105.48" y2="387.816"/>
			
				<line style="fill:none;stroke:#263238;stroke-linecap:round;stroke-miterlimit:10;" x1="125.126" y1="390.997" x2="114.274" y2="390.997"/>
			
				<line style="fill:none;stroke:#263238;stroke-linecap:round;stroke-miterlimit:10;" x1="133.171" y1="397.171" x2="109.971" y2="397.171"/>
			
				<line style="fill:none;stroke:#263238;stroke-linecap:round;stroke-miterlimit:10;" x1="107.351" y1="397.545" x2="99.493" y2="397.545"/>
			
				<line style="fill:none;stroke:#263238;stroke-linecap:round;stroke-miterlimit:10;" x1="115.771" y1="401.662" x2="103.422" y2="401.662"/>
			
				<line style="fill:none;stroke:#263238;stroke-linecap:round;stroke-miterlimit:10;" x1="134.254" y1="392.293" x2="129.055" y2="392.293"/>
			
				<line style="fill:none;stroke:#263238;stroke-linecap:round;stroke-miterlimit:10;" x1="33.447" y1="391.371" x2="45.983" y2="391.371"/>
			
				<line style="fill:none;stroke:#263238;stroke-linecap:round;stroke-miterlimit:10;" x1="40.37" y1="396.236" x2="56.273" y2="396.236"/>
			
				<line style="fill:none;stroke:#263238;stroke-linecap:round;stroke-miterlimit:10;" x1="49.163" y1="391.371" x2="59.267" y2="391.371"/>
		</g>
		<g>
			<path style="fill:#92E3A9;stroke:#263238;stroke-linecap:round;stroke-miterlimit:10;" d="M117.842,376.657H33.264
				c-7.599,0-13.76-6.161-13.76-13.76v-4.45c0-7.599,6.161-13.76,13.76-13.76h84.578V376.657z"/>
			<path style="fill:#FFFFFF;stroke:#263238;stroke-linecap:round;stroke-miterlimit:10;" d="M139.625,372.383H48.629
				c-5.568,0-10.081-4.514-10.081-10.081v-3.26c0-5.568,4.513-10.081,10.081-10.081h90.996V372.383z"/>
			<path style="fill:#D6D6D6;stroke:#263238;stroke-linecap:round;stroke-miterlimit:10;" d="M50.26,348.961h93.482v-4.274H50.867
				c-8.828,0-15.985,7.157-15.985,15.985c0,8.828,7.157,15.985,15.985,15.985h92.875v-4.274H50.26
				c-6.468,0-11.711-5.243-11.711-11.711S43.792,348.961,50.26,348.961z"/>
			
				<line style="fill:none;stroke:#263238;stroke-linecap:round;stroke-miterlimit:10;" x1="42.064" y1="356.195" x2="67.322" y2="356.195"/>
			
				<line style="fill:none;stroke:#263238;stroke-linecap:round;stroke-miterlimit:10;" x1="47.677" y1="359.376" x2="58.528" y2="359.376"/>
			
				<line style="fill:none;stroke:#263238;stroke-linecap:round;stroke-miterlimit:10;" x1="39.631" y1="365.55" x2="62.832" y2="365.55"/>
			
				<line style="fill:none;stroke:#263238;stroke-linecap:round;stroke-miterlimit:10;" x1="65.451" y1="365.924" x2="73.309" y2="365.924"/>
			
				<line style="fill:none;stroke:#263238;stroke-linecap:round;stroke-miterlimit:10;" x1="57.032" y1="370.041" x2="69.38" y2="370.041"/>
			
				<line style="fill:none;stroke:#263238;stroke-linecap:round;stroke-miterlimit:10;" x1="38.549" y1="360.672" x2="43.748" y2="360.672"/>
			
				<line style="fill:none;stroke:#263238;stroke-linecap:round;stroke-miterlimit:10;" x1="139.355" y1="359.75" x2="126.82" y2="359.75"/>
			
				<line style="fill:none;stroke:#263238;stroke-linecap:round;stroke-miterlimit:10;" x1="132.433" y1="364.615" x2="116.529" y2="364.615"/>
			
				<line style="fill:none;stroke:#263238;stroke-linecap:round;stroke-miterlimit:10;" x1="123.639" y1="359.75" x2="113.536" y2="359.75"/>
		</g>
		<g>
			<path style="fill:#263238;stroke:#263238;stroke-linecap:round;stroke-miterlimit:10;" d="M133.407,344.97H48.829
				c-7.599,0-13.76-6.16-13.76-13.76v-4.45c0-7.599,6.161-13.76,13.76-13.76h84.578V344.97z"/>
			<path style="fill:#FFFFFF;stroke:#263238;stroke-linecap:round;stroke-miterlimit:10;" d="M155.191,340.696H64.195
				c-5.568,0-10.081-4.513-10.081-10.081v-3.26c0-5.568,4.513-10.081,10.081-10.081h90.996V340.696z"/>
			<path style="fill:#D6D6D6;stroke:#263238;stroke-linecap:round;stroke-miterlimit:10;" d="M65.825,317.273h93.482V313H66.432
				c-8.828,0-15.985,7.157-15.985,15.985c0,8.828,7.157,15.985,15.985,15.985h92.875v-4.274H65.825
				c-6.468,0-11.711-5.243-11.711-11.711C54.114,322.517,59.357,317.273,65.825,317.273z"/>
			
				<line style="fill:none;stroke:#263238;stroke-linecap:round;stroke-miterlimit:10;" x1="57.629" y1="324.508" x2="82.888" y2="324.508"/>
			
				<line style="fill:none;stroke:#263238;stroke-linecap:round;stroke-miterlimit:10;" x1="63.242" y1="327.689" x2="74.094" y2="327.689"/>
			
				<line style="fill:none;stroke:#263238;stroke-linecap:round;stroke-miterlimit:10;" x1="55.197" y1="333.863" x2="78.397" y2="333.863"/>
			
				<line style="fill:none;stroke:#263238;stroke-linecap:round;stroke-miterlimit:10;" x1="81.017" y1="334.237" x2="88.875" y2="334.237"/>
			
				<line style="fill:none;stroke:#263238;stroke-linecap:round;stroke-miterlimit:10;" x1="72.597" y1="338.353" x2="84.946" y2="338.353"/>
			
				<line style="fill:none;stroke:#263238;stroke-linecap:round;stroke-miterlimit:10;" x1="54.114" y1="328.985" x2="59.313" y2="328.985"/>
			
				<line style="fill:none;stroke:#263238;stroke-linecap:round;stroke-miterlimit:10;" x1="154.921" y1="328.063" x2="142.385" y2="328.063"/>
			
				<line style="fill:none;stroke:#263238;stroke-linecap:round;stroke-miterlimit:10;" x1="147.998" y1="332.927" x2="132.095" y2="332.927"/>
			
				<line style="fill:none;stroke:#263238;stroke-linecap:round;stroke-miterlimit:10;" x1="139.205" y1="328.063" x2="129.101" y2="328.063"/>
		</g>
		<g>
			<path style="fill:#92E3A9;stroke:#263238;stroke-linecap:round;stroke-miterlimit:10;" d="M133.325,281.176H48.747
				c-7.599,0-13.76-6.16-13.76-13.76v-4.45c0-7.599,6.161-13.76,13.76-13.76h84.578V281.176z"/>
			<path style="fill:#FFFFFF;stroke:#263238;stroke-linecap:round;stroke-miterlimit:10;" d="M155.109,276.902H64.113
				c-5.568,0-10.081-4.513-10.081-10.081v-3.26c0-5.568,4.513-10.081,10.081-10.081h90.996V276.902z"/>
			<path style="fill:#D6D6D6;stroke:#263238;stroke-linecap:round;stroke-miterlimit:10;" d="M65.743,253.48h93.482v-4.274H66.35
				c-8.828,0-15.985,7.157-15.985,15.985c0,8.828,7.157,15.985,15.985,15.985h92.875v-4.274H65.743
				c-6.468,0-11.711-5.243-11.711-11.711C54.032,258.723,59.276,253.48,65.743,253.48z"/>
			
				<line style="fill:none;stroke:#263238;stroke-linecap:round;stroke-miterlimit:10;" x1="57.547" y1="260.715" x2="82.806" y2="260.715"/>
			
				<line style="fill:none;stroke:#263238;stroke-linecap:round;stroke-miterlimit:10;" x1="63.16" y1="263.895" x2="74.012" y2="263.895"/>
			
				<line style="fill:none;stroke:#263238;stroke-linecap:round;stroke-miterlimit:10;" x1="55.115" y1="270.07" x2="78.315" y2="270.07"/>
			
				<line style="fill:none;stroke:#263238;stroke-linecap:round;stroke-miterlimit:10;" x1="80.935" y1="270.444" x2="88.793" y2="270.444"/>
			
				<line style="fill:none;stroke:#263238;stroke-linecap:round;stroke-miterlimit:10;" x1="72.515" y1="274.56" x2="84.864" y2="274.56"/>
			
				<line style="fill:none;stroke:#263238;stroke-linecap:round;stroke-miterlimit:10;" x1="54.032" y1="265.191" x2="59.231" y2="265.191"/>
			
				<line style="fill:none;stroke:#263238;stroke-linecap:round;stroke-miterlimit:10;" x1="154.839" y1="264.27" x2="142.304" y2="264.27"/>
			
				<line style="fill:none;stroke:#263238;stroke-linecap:round;stroke-miterlimit:10;" x1="147.917" y1="269.134" x2="132.013" y2="269.134"/>
			
				<line style="fill:none;stroke:#263238;stroke-linecap:round;stroke-miterlimit:10;" x1="139.123" y1="264.27" x2="129.02" y2="264.27"/>
		</g>
	</g>
	<g>
		<g>
			<path style="fill:#D4D4D4;stroke:#263238;stroke-linecap:round;stroke-miterlimit:10;" d="M459.546,440.238h-84.578
				c-7.599,0-13.76-6.16-13.76-13.76v-4.45c0-7.599,6.161-13.76,13.76-13.76h84.578V440.238z"/>
			<path style="fill:#FFFFFF;stroke:#263238;stroke-linecap:round;stroke-miterlimit:10;" d="M481.329,435.964h-90.996
				c-5.568,0-10.081-4.513-10.081-10.081v-3.26c0-5.568,4.513-10.081,10.081-10.081h90.996V435.964z"/>
			<path style="fill:#BABABA;stroke:#263238;stroke-linecap:round;stroke-miterlimit:10;" d="M391.964,412.542h93.482v-4.274
				h-92.875c-8.828,0-15.985,7.157-15.985,15.985c0,8.828,7.157,15.985,15.985,15.985h92.875v-4.274h-93.482
				c-6.468,0-11.711-5.243-11.711-11.711S385.496,412.542,391.964,412.542z"/>
			
				<line style="fill:none;stroke:#263238;stroke-linecap:round;stroke-miterlimit:10;" x1="383.768" y1="419.777" x2="409.026" y2="419.777"/>
			
				<line style="fill:none;stroke:#263238;stroke-linecap:round;stroke-miterlimit:10;" x1="389.381" y1="422.957" x2="400.233" y2="422.957"/>
			
				<line style="fill:none;stroke:#263238;stroke-linecap:round;stroke-miterlimit:10;" x1="381.336" y1="429.132" x2="404.536" y2="429.132"/>
			
				<line style="fill:none;stroke:#263238;stroke-linecap:round;stroke-miterlimit:10;" x1="407.155" y1="429.506" x2="415.013" y2="429.506"/>
			
				<line style="fill:none;stroke:#263238;stroke-linecap:round;stroke-miterlimit:10;" x1="398.736" y1="433.622" x2="411.084" y2="433.622"/>
			
				<line style="fill:none;stroke:#263238;stroke-linecap:round;stroke-miterlimit:10;" x1="380.253" y1="424.253" x2="385.452" y2="424.253"/>
			
				<line style="fill:none;stroke:#263238;stroke-linecap:round;stroke-miterlimit:10;" x1="481.06" y1="423.332" x2="468.524" y2="423.332"/>
			
				<line style="fill:none;stroke:#263238;stroke-linecap:round;stroke-miterlimit:10;" x1="474.137" y1="428.196" x2="458.233" y2="428.196"/>
			
				<line style="fill:none;stroke:#263238;stroke-linecap:round;stroke-miterlimit:10;" x1="465.343" y1="423.332" x2="455.24" y2="423.332"/>
		</g>
		<g>
			<path style="fill:#263238;stroke:#263238;stroke-linecap:round;stroke-miterlimit:10;" d="M459.546,408.278h-84.578
				c-7.599,0-13.76-6.16-13.76-13.76v-4.45c0-7.599,6.161-13.76,13.76-13.76h84.578V408.278z"/>
			<path style="fill:#FFFFFF;stroke:#263238;stroke-linecap:round;stroke-miterlimit:10;" d="M481.329,404.004h-90.996
				c-5.568,0-10.081-4.513-10.081-10.081v-3.26c0-5.567,4.513-10.081,10.081-10.081h90.996V404.004z"/>
			<path style="fill:#263238;stroke:#263238;stroke-linecap:round;stroke-miterlimit:10;" d="M391.964,380.582h93.482v-4.274
				h-92.875c-8.828,0-15.985,7.157-15.985,15.985c0,8.828,7.157,15.985,15.985,15.985h92.875v-4.274h-93.482
				c-6.468,0-11.711-5.243-11.711-11.711C380.253,385.825,385.496,380.582,391.964,380.582z"/>
			
				<line style="fill:none;stroke:#263238;stroke-linecap:round;stroke-miterlimit:10;" x1="383.768" y1="387.816" x2="409.026" y2="387.816"/>
			
				<line style="fill:none;stroke:#263238;stroke-linecap:round;stroke-miterlimit:10;" x1="389.381" y1="390.997" x2="400.233" y2="390.997"/>
			
				<line style="fill:none;stroke:#263238;stroke-linecap:round;stroke-miterlimit:10;" x1="381.336" y1="397.171" x2="404.536" y2="397.171"/>
			
				<line style="fill:none;stroke:#263238;stroke-linecap:round;stroke-miterlimit:10;" x1="407.155" y1="397.545" x2="415.013" y2="397.545"/>
			
				<line style="fill:none;stroke:#263238;stroke-linecap:round;stroke-miterlimit:10;" x1="398.736" y1="401.662" x2="411.084" y2="401.662"/>
			
				<line style="fill:none;stroke:#263238;stroke-linecap:round;stroke-miterlimit:10;" x1="380.253" y1="392.293" x2="385.452" y2="392.293"/>
			
				<line style="fill:none;stroke:#263238;stroke-linecap:round;stroke-miterlimit:10;" x1="481.06" y1="391.371" x2="468.524" y2="391.371"/>
			
				<line style="fill:none;stroke:#263238;stroke-linecap:round;stroke-miterlimit:10;" x1="474.137" y1="396.236" x2="458.233" y2="396.236"/>
			
				<line style="fill:none;stroke:#263238;stroke-linecap:round;stroke-miterlimit:10;" x1="465.343" y1="391.371" x2="455.24" y2="391.371"/>
		</g>
		<g>
			<path style="fill:#92E3A9;stroke:#263238;stroke-linecap:round;stroke-miterlimit:10;" d="M458.063,343.858h-84.578
				c-7.599,0-13.76-6.16-13.76-13.76v-4.45c0-7.599,6.16-13.76,13.76-13.76h84.578V343.858z"/>
			<path style="fill:#FFFFFF;stroke:#263238;stroke-linecap:round;stroke-miterlimit:10;" d="M479.847,339.584h-90.996
				c-5.568,0-10.081-4.513-10.081-10.081v-3.26c0-5.568,4.513-10.081,10.081-10.081h90.996V339.584z"/>
			<path style="fill:#D6D6D6;stroke:#263238;stroke-linecap:round;stroke-miterlimit:10;" d="M390.481,316.162h93.482v-4.274
				h-92.875c-8.828,0-15.985,7.157-15.985,15.985c0,8.828,7.157,15.985,15.985,15.985h92.875v-4.274h-93.482
				c-6.468,0-11.711-5.243-11.711-11.711C378.77,321.405,384.013,316.162,390.481,316.162z"/>
			
				<line style="fill:none;stroke:#263238;stroke-linecap:round;stroke-miterlimit:10;" x1="382.285" y1="323.396" x2="407.544" y2="323.396"/>
			
				<line style="fill:none;stroke:#263238;stroke-linecap:round;stroke-miterlimit:10;" x1="387.898" y1="326.577" x2="398.75" y2="326.577"/>
			
				<line style="fill:none;stroke:#263238;stroke-linecap:round;stroke-miterlimit:10;" x1="379.853" y1="332.751" x2="403.053" y2="332.751"/>
			
				<line style="fill:none;stroke:#263238;stroke-linecap:round;stroke-miterlimit:10;" x1="405.673" y1="333.125" x2="413.531" y2="333.125"/>
			
				<line style="fill:none;stroke:#263238;stroke-linecap:round;stroke-miterlimit:10;" x1="397.253" y1="337.242" x2="409.602" y2="337.242"/>
			
				<line style="fill:none;stroke:#263238;stroke-linecap:round;stroke-miterlimit:10;" x1="378.77" y1="327.873" x2="383.969" y2="327.873"/>
			
				<line style="fill:none;stroke:#263238;stroke-linecap:round;stroke-miterlimit:10;" x1="479.577" y1="326.951" x2="467.042" y2="326.951"/>
			
				<line style="fill:none;stroke:#263238;stroke-linecap:round;stroke-miterlimit:10;" x1="472.654" y1="331.816" x2="456.751" y2="331.816"/>
			
				<line style="fill:none;stroke:#263238;stroke-linecap:round;stroke-miterlimit:10;" x1="463.861" y1="326.951" x2="453.757" y2="326.951"/>
		</g>
		<g>
			<path style="fill:#263238;stroke:#263238;stroke-linecap:round;stroke-miterlimit:10;" d="M388.517,375.956h84.578
				c7.599,0,13.76-6.161,13.76-13.76v-4.45c0-7.599-6.16-13.76-13.76-13.76h-84.578V375.956z"/>
			<path style="fill:#D4D4D4;stroke:#263238;stroke-linecap:round;stroke-miterlimit:10;" d="M375.223,371.682h90.996
				c5.568,0,10.081-4.513,10.081-10.081v-3.26c0-5.568-4.513-10.081-10.081-10.081h-90.996V371.682z"/>
			<path style="fill:#D6D6D6;stroke:#263238;stroke-linecap:round;stroke-miterlimit:10;" d="M464.589,348.26h-93.482v-4.274h92.875
				c8.828,0,15.985,7.157,15.985,15.985c0,8.828-7.157,15.985-15.985,15.985h-92.875v-4.274h93.482
				c6.468,0,11.711-5.243,11.711-11.711C476.3,353.503,471.056,348.26,464.589,348.26z"/>
			
				<line style="fill:none;stroke:#263238;stroke-linecap:round;stroke-miterlimit:10;" x1="472.784" y1="355.494" x2="447.526" y2="355.494"/>
			
				<line style="fill:none;stroke:#263238;stroke-linecap:round;stroke-miterlimit:10;" x1="467.171" y1="358.675" x2="456.32" y2="358.675"/>
			
				<line style="fill:none;stroke:#263238;stroke-linecap:round;stroke-miterlimit:10;" x1="475.217" y1="364.849" x2="452.016" y2="364.849"/>
			
				<line style="fill:none;stroke:#263238;stroke-linecap:round;stroke-miterlimit:10;" x1="449.397" y1="365.223" x2="441.539" y2="365.223"/>
			
				<line style="fill:none;stroke:#263238;stroke-linecap:round;stroke-miterlimit:10;" x1="457.816" y1="369.34" x2="445.468" y2="369.34"/>
			
				<line style="fill:none;stroke:#263238;stroke-linecap:round;stroke-miterlimit:10;" x1="476.3" y1="359.971" x2="471.1" y2="359.971"/>
			
				<line style="fill:none;stroke:#263238;stroke-linecap:round;stroke-miterlimit:10;" x1="375.493" y1="359.049" x2="388.028" y2="359.049"/>
			
				<line style="fill:none;stroke:#263238;stroke-linecap:round;stroke-miterlimit:10;" x1="382.415" y1="363.914" x2="398.319" y2="363.914"/>
			
				<line style="fill:none;stroke:#263238;stroke-linecap:round;stroke-miterlimit:10;" x1="391.209" y1="359.049" x2="401.312" y2="359.049"/>
		</g>
		<path style="fill:#263238;stroke:#263238;stroke-linecap:round;stroke-miterlimit:10;" d="M375.223,359.307h111.632v-1.561
			c0-7.599-6.161-13.76-13.76-13.76H371.107v4.274h4.116V359.307z"/>
	</g>
</g>
<g id="Lamp">
	<g>
		<g>
			
				<ellipse transform="matrix(0.4259 -0.9048 0.9048 0.4259 40.7942 427.7461)" style="fill:#92E3A9;stroke:#263238;stroke-miterlimit:10;" cx="357.44" cy="181.729" rx="37.818" ry="37.818"/>
			<polygon style="fill:#263238;" points="433.59,430.558 441.215,430.558 466.697,276.209 379.848,177.72 373.533,181.993 
				459.072,278.547 			"/>
		</g>
		<circle style="fill:#263238;stroke:#263238;stroke-miterlimit:10;" cx="462.884" cy="277.378" r="8.146"/>
		
			<rect x="390.153" y="429.919" transform="matrix(-1 -1.224647e-16 1.224647e-16 -1 875.8908 870.1576)" style="fill:#263238;stroke:#263238;stroke-miterlimit:10;" width="95.585" height="10.319"/>
		<path style="fill:#92E3A9;stroke:#263238;stroke-miterlimit:10;" d="M354.584,167.328c4.597,11.556,17.691,17.197,29.246,12.6
			c11.556-4.597,17.197-17.691,12.6-29.247c-4.597-11.555-17.691-17.197-29.247-12.6
			C355.629,142.679,349.987,155.773,354.584,167.328z"/>
		<path style="fill:#92E3A9;stroke:#263238;stroke-miterlimit:10;" d="M383.83,179.929c-11.556,4.597-24.65-1.045-29.246-12.6
			c-3.024-7.601-1.616-15.867,2.989-21.943l-7.658,8.243c-7.096,6.091-9.907,16.233-6.257,25.409
			c4.597,11.556,17.691,17.197,29.246,12.6c2.65-1.054,4.984-2.559,6.96-4.386l0.098,0.109l1.058-1.256
			c0.544-0.582,1.058-1.189,1.535-1.821l5.612-6.658C386.834,178.531,385.388,179.309,383.83,179.929z"/>
	</g>
</g>
<g id="Table">
	<g>
		<path style="fill:#263238;" d="M492.895,443.239H8.505c-1.645,0-2.979-1.343-2.979-3c0-1.657,1.334-3,2.979-3h484.39
			c1.646,0,2.979,1.343,2.979,3C495.874,441.896,494.541,443.239,492.895,443.239z"/>
	</g>
</g>
</svg>
