<?xml version="1.0" standalone="no"?>
<!DOCTYPE svg PUBLIC "-//W3C//DTD SVG 20010904//EN"
 "http://www.w3.org/TR/2001/REC-SVG-20010904/DTD/svg10.dtd">
<svg version="1.0" xmlns="http://www.w3.org/2000/svg"
 width="1024.000000pt" height="1024.000000pt" viewBox="0 0 1024.000000 1024.000000"
 preserveAspectRatio="xMidYMid meet">

<g transform="translate(0.000000,1024.000000) scale(0.100000,-0.100000)"
fill="#000000" stroke="none">
<path d="M4931 6722 c-53 -27 -76 -65 -76 -126 1 -62 27 -105 79 -130 29 -14
82 -16 384 -16 338 0 350 -1 376 -21 33 -26 34 -68 3 -104 l-23 -27 -509 -4
c-281 -3 -520 -7 -532 -9 -25 -6 -202 -292 -210 -340 -6 -44 34 -116 77 -137
31 -16 71 -18 361 -18 303 0 327 -1 342 -18 14 -16 17 -43 17 -174 0 -88 5
-169 11 -187 20 -57 40 -61 319 -61 232 0 251 1 269 19 20 20 228 366 545 905
198 336 207 358 172 411 -37 56 -21 55 -828 55 -688 0 -746 -1 -777 -18z"/>
<path d="M4195 5632 c-38 -5 -81 -36 -100 -72 -32 -62 -8 -146 54 -187 34 -23
37 -23 380 -23 326 0 348 1 378 20 41 25 63 68 63 122 0 59 -30 105 -85 129
-41 18 -65 19 -352 17 -169 -1 -321 -3 -338 -6z"/>
<path d="M3761 5172 c-52 -26 -76 -65 -76 -122 0 -57 24 -96 76 -122 30 -16
70 -18 372 -18 296 0 343 2 374 17 93 44 99 189 10 243 -30 19 -52 20 -377 20
-309 0 -349 -2 -379 -18z"/>
<path d="M5282 5174 c-91 -46 -86 -195 8 -245 46 -25 224 -27 258 -4 32 23 95
135 94 169 -1 19 -12 41 -32 60 l-30 31 -133 3 c-107 2 -138 -1 -165 -14z"/>
<path d="M3105 4556 c-75 -18 -151 -64 -205 -123 -196 -215 -133 -557 127
-685 64 -31 73 -33 178 -33 108 0 113 1 186 37 93 46 158 112 202 206 30 63
32 74 32 177 0 104 -2 114 -34 182 -87 186 -291 287 -486 239z m201 -180 c97
-45 164 -162 150 -263 -7 -55 -39 -130 -69 -161 -60 -65 -167 -96 -243 -72
-112 36 -187 138 -188 254 -1 80 23 141 78 195 75 74 177 91 272 47z"/>
<path d="M5210 4552 c-80 -23 -154 -98 -169 -171 -24 -115 25 -215 134 -269
22 -11 86 -34 142 -51 152 -47 197 -97 139 -156 -65 -65 -207 -49 -302 35 -19
16 -41 30 -48 30 -18 0 -96 -88 -96 -108 0 -27 86 -99 147 -123 48 -19 77 -23
173 -23 100 -1 122 2 168 23 93 42 144 121 145 226 0 137 -70 204 -276 261
-52 14 -109 35 -126 45 -38 23 -49 60 -27 95 42 63 167 60 260 -7 46 -33 58
-29 110 35 40 48 30 78 -39 117 -102 57 -228 73 -335 41z"/>
<path d="M5785 4518 c-3 -7 -6 -51 -7 -98 l-3 -85 -50 -5 -50 -5 -3 -58 c-4
-72 7 -87 64 -87 l44 0 0 -173 c0 -202 8 -227 82 -265 54 -28 147 -34 196 -13
31 13 32 15 32 72 0 63 1 62 -63 59 -21 -1 -49 6 -63 14 -24 16 -24 19 -24
161 l0 145 58 0 c80 0 87 7 85 81 -1 33 -5 64 -8 67 -4 4 -36 6 -71 4 l-64 -2
0 84 c0 117 1 116 -81 116 -47 0 -71 -4 -74 -12z"/>
<path d="M4008 4336 c-26 -7 -65 -25 -87 -39 l-41 -27 0 25 c0 30 -26 45 -80
45 -84 0 -80 16 -80 -305 0 -282 0 -284 22 -299 27 -19 97 -21 121 -3 15 10
18 35 20 187 2 161 4 178 24 211 40 63 127 80 180 35 l28 -24 5 -201 c6 -227
3 -221 83 -221 34 0 53 6 67 20 20 20 20 30 16 230 -4 177 -8 217 -24 253 -26
59 -79 103 -142 116 -60 13 -52 13 -112 -3z"/>
<path d="M4582 4335 c-81 -25 -140 -75 -180 -150 -24 -45 -27 -61 -27 -150 0
-81 4 -109 21 -146 29 -61 85 -116 153 -148 77 -36 211 -37 286 -3 58 27 105
68 105 93 0 17 -63 79 -80 79 -5 0 -30 -11 -56 -25 -58 -31 -141 -34 -194 -7
-34 17 -84 78 -75 92 2 3 95 7 207 7 238 1 234 0 223 98 -9 86 -40 148 -97
200 -77 70 -184 92 -286 60z m160 -147 c24 -9 68 -62 68 -82 0 -3 -61 -6 -135
-6 -151 0 -158 4 -107 61 41 46 102 56 174 27z"/>
<path d="M6347 4336 c-140 -50 -214 -169 -205 -330 5 -96 38 -167 102 -222 94
-81 251 -98 366 -40 61 31 100 63 100 81 0 7 -21 31 -46 55 -43 40 -46 41 -67
26 -49 -37 -90 -48 -155 -44 -61 4 -67 7 -103 46 -68 72 -68 72 176 72 l215 0
6 26 c9 37 -4 121 -28 176 -55 128 -228 201 -361 154z m172 -154 c29 -21 59
-68 50 -77 -4 -3 -65 -4 -137 -3 l-131 3 16 34 c32 66 140 89 202 43z"/>
<path d="M7110 4337 c-26 -7 -62 -23 -82 -35 l-36 -22 -6 25 c-6 25 -9 26 -79
23 l-72 -3 -3 -409 c-1 -293 1 -413 9 -422 14 -18 120 -19 137 -2 8 8 12 56
12 150 l0 138 53 -29 c114 -64 225 -48 317 47 71 73 95 137 94 247 0 66 -5 90
-27 137 -60 123 -194 189 -317 155z m112 -168 c46 -33 71 -93 66 -156 -8 -89
-65 -147 -146 -147 -96 0 -152 60 -152 164 0 73 25 118 81 148 51 27 104 24
151 -9z"/>
</g>
</svg>
